<svg width="1920" height="1080" viewBox="0 0 1920 1080" fill="none" xmlns="http://www.w3.org/2000/svg">
<g clip-path="url(#clip0)">
<path d="M1920 0H0V1080H1920V0Z" fill="black"/>
<path d="M0 -567.91C31.9576 -551.424 111.84 -483.301 191.745 -468.991C271.651 -454.681 394.179 -494.1 479.433 -482.048C564.687 -469.997 630.823 -423.509 703.27 -396.683C775.717 -369.858 826.074 -339.684 914.115 -321.095C1002.16 -302.505 1136.5 -312.79 1231.52 -285.149C1326.53 -257.508 1416.15 -187.886 1484.19 -155.25C1552.23 -122.615 1567.11 -110.559 1639.74 -89.3357C1712.38 -68.1123 1873.29 -38.1479 1920 -27.9104V1080H0V-567.91Z" fill="url(#paint0_linear)"/>
<path d="M0 -449.197C76.2252 -430.908 299.503 -390.144 457.351 -339.463C615.199 -288.781 787.572 -190.239 947.088 -145.11C1106.6 -99.9803 1252.3 -110.386 1414.45 -68.6862C1576.6 -26.9865 1835.74 76.1259 1920 105.088V1080H0V-449.197Z" fill="url(#paint1_linear)"/>
<path d="M0 -265.816C73.9532 -255.741 322.942 -237.623 443.719 -205.366C564.497 -173.11 611.039 -114.38 724.666 -72.2768C838.292 -30.1742 985.511 -4.65408 1125.48 47.25C1265.44 99.1541 1432.04 196.564 1564.46 239.148C1696.88 281.732 1860.74 292.154 1920 302.756V1080H0V-265.816Z" fill="url(#paint2_linear)"/>
<path d="M0 -194.012C59.136 -178.202 253.294 -139.589 354.816 -99.148C456.338 -58.7068 514.011 23.7659 609.133 48.6346C704.254 73.5033 817.174 22.1047 925.545 50.0641C1033.92 78.0235 1138.5 185.433 1259.36 216.391C1380.21 247.349 1540.58 207.068 1650.69 235.811C1760.8 264.553 1875.12 363.339 1920 388.845V1080H0V-194.012Z" fill="url(#paint3_linear)"/>
<path d="M0 3.18311C62.6672 25.1017 247.095 103.039 376.003 134.695C504.911 166.351 636.899 156.773 773.449 193.118C909.999 229.464 1071.89 309.878 1195.3 352.77C1318.72 395.662 1393.15 409.212 1513.93 450.471C1634.71 491.73 1852.32 575.35 1920 600.326V1080H0V3.18311Z" fill="url(#paint4_linear)"/>
<path d="M0 128.088C52.8488 138.078 213.641 148.97 317.093 188.027C420.545 227.084 505.196 318.842 620.712 362.43C736.227 406.018 892.787 414.998 1010.19 449.556C1127.59 484.115 1217.52 533.929 1325.12 569.781C1432.72 605.632 1556.62 636.377 1655.77 664.666C1754.92 692.956 1875.96 727.042 1920 739.517V1080H0V128.088Z" fill="url(#paint5_linear)"/>
<path d="M0 199.669C42.4541 220.334 157.637 288.621 254.725 323.656C351.812 358.692 488.8 380.936 582.523 409.882C676.246 438.828 724.246 476.543 817.064 497.333C909.883 518.123 1044.81 511.633 1139.44 534.621C1234.06 557.61 1306.54 604.323 1384.83 635.264C1463.12 666.205 1519.99 688.583 1609.18 720.269C1698.38 751.956 1868.2 807.864 1920 825.383V1080H0V199.669Z" fill="url(#paint6_linear)"/>
</g>
<defs>
<linearGradient id="paint0_linear" x1="960" y1="-567.91" x2="213.493" y2="1171.62" gradientUnits="userSpaceOnUse">
<stop stop-color="#9CCAFF"/>
<stop offset="1" stop-color="#060814"/>
</linearGradient>
<linearGradient id="paint1_linear" x1="960" y1="-449.197" x2="302.981" y2="1200.66" gradientUnits="userSpaceOnUse">
<stop stop-color="#73B4FF"/>
<stop offset="0.630208" stop-color="#8136FD"/>
</linearGradient>
<linearGradient id="paint2_linear" x1="960" y1="-265.816" x2="434.908" y2="1232.42" gradientUnits="userSpaceOnUse">
<stop stop-color="#668BE8"/>
<stop offset="1" stop-color="#8205FF" stop-opacity="0.95"/>
</linearGradient>
<linearGradient id="paint3_linear" x1="960" y1="-194.012" x2="484.036" y2="1240.59" gradientUnits="userSpaceOnUse">
<stop stop-color="#C0F1F2"/>
<stop offset="0.485714" stop-color="#4442D7"/>
</linearGradient>
<linearGradient id="paint4_linear" x1="960" y1="3.18309" x2="610.065" y2="1251.07" gradientUnits="userSpaceOnUse">
<stop stop-color="#C0F2E8"/>
<stop offset="0.614286" stop-color="#425DD7"/>
</linearGradient>
<linearGradient id="paint5_linear" x1="960" y1="128.088" x2="682.111" y2="1249.09" gradientUnits="userSpaceOnUse">
<stop stop-color="#C0DDF2"/>
<stop offset="1" stop-color="#4287D7"/>
</linearGradient>
<linearGradient id="paint6_linear" x1="960" y1="199.669" x2="720.324" y2="1245.14" gradientUnits="userSpaceOnUse">
<stop stop-color="#C0D4F2"/>
<stop offset="0.871429" stop-color="#425DD7"/>
</linearGradient>
<clipPath id="clip0">
<rect width="1920" height="1080" fill="white"/>
</clipPath>
</defs>
</svg>
