<svg width="1047" height="1119" viewBox="0 0 1047 1119" fill="none" xmlns="http://www.w3.org/2000/svg">
<path d="M929.093 559.5C929.093 792.057 740.568 980.581 508.012 980.581C275.455 980.581 86.9303 792.057 86.9303 559.5C86.9303 326.943 275.455 138.419 508.012 138.419C740.568 138.419 929.093 326.943 929.093 559.5Z" stroke="#252545" stroke-width="0.8375"/>
<g filter="url(#filter0_dii)">
<circle cx="161" cy="781" r="94" fill="#4E4AFF"/>
<circle cx="161" cy="781" r="94" fill="url(#paint0_radial)"/>
</g>
<g filter="url(#filter1_dii)">
<circle cx="512" cy="569" r="151" fill="#4E4AFF"/>
<circle cx="512" cy="569" r="151" fill="url(#paint1_radial)"/>
</g>
<g filter="url(#filter2_dii)">
<circle cx="562" cy="156" r="92" fill="#4E4AFF"/>
<circle cx="562" cy="156" r="92" fill="url(#paint2_radial)"/>
</g>
<g filter="url(#filter3_dii)">
<circle cx="821" cy="862" r="74" fill="#4E4AFF"/>
<circle cx="821" cy="862" r="74" fill="url(#paint3_radial)"/>
</g>
<g filter="url(#filter4_dii)">
<circle cx="485" cy="979" r="69" fill="#4E4AFF"/>
<circle cx="485" cy="979" r="69" fill="url(#paint4_radial)"/>
</g>
<g filter="url(#filter5_dii)">
<circle cx="160.5" cy="341.5" r="76.5" fill="#4E4AFF"/>
<circle cx="160.5" cy="341.5" r="76.5" fill="url(#paint5_radial)"/>
</g>
<path d="M91.014 790.27C89.474 790.27 88.014 790.07 86.634 789.67C85.274 789.25 84.164 788.69 83.304 787.99C82.844 787.65 82.614 787.17 82.614 786.55C82.614 786.13 82.734 785.77 82.974 785.47C83.234 785.15 83.534 784.99 83.874 784.99C84.234 784.99 84.644 785.13 85.104 785.41C85.964 786.03 86.864 786.48 87.804 786.76C88.744 787.04 89.784 787.18 90.924 787.18C92.384 787.18 93.504 786.93 94.284 786.43C95.064 785.91 95.454 785.16 95.454 784.18C95.454 783.42 95.084 782.84 94.344 782.44C93.624 782.02 92.414 781.62 90.714 781.24C88.954 780.86 87.524 780.42 86.424 779.92C85.324 779.42 84.494 778.78 83.934 778C83.374 777.22 83.094 776.23 83.094 775.03C83.094 773.79 83.444 772.68 84.144 771.7C84.844 770.72 85.814 769.96 87.054 769.42C88.314 768.86 89.724 768.58 91.284 768.58C94.144 768.58 96.474 769.34 98.274 770.86C98.534 771.08 98.714 771.3 98.814 771.52C98.934 771.72 98.994 771.98 98.994 772.3C98.994 772.72 98.864 773.09 98.604 773.41C98.364 773.71 98.074 773.86 97.734 773.86C97.534 773.86 97.344 773.83 97.164 773.77C97.004 773.71 96.784 773.6 96.504 773.44C95.684 772.84 94.884 772.4 94.104 772.12C93.344 771.82 92.404 771.67 91.284 771.67C89.924 771.67 88.844 771.95 88.044 772.51C87.264 773.05 86.874 773.81 86.874 774.79C86.874 775.61 87.224 776.24 87.924 776.68C88.624 777.12 89.814 777.53 91.494 777.91C93.274 778.31 94.714 778.76 95.814 779.26C96.934 779.74 97.784 780.36 98.364 781.12C98.964 781.88 99.264 782.83 99.264 783.97C99.264 785.21 98.914 786.31 98.214 787.27C97.534 788.21 96.564 788.95 95.304 789.49C94.064 790.01 92.634 790.27 91.014 790.27ZM110.278 787.39C111.278 787.45 111.778 787.9 111.778 788.74C111.778 789.22 111.578 789.59 111.178 789.85C110.798 790.09 110.248 790.19 109.528 790.15L108.718 790.09C105.358 789.85 103.678 788.05 103.678 784.69V778.15H102.178C101.638 778.15 101.218 778.03 100.918 777.79C100.638 777.55 100.498 777.2 100.498 776.74C100.498 776.28 100.638 775.93 100.918 775.69C101.218 775.45 101.638 775.33 102.178 775.33H103.678V772.57C103.678 772.03 103.848 771.6 104.188 771.28C104.528 770.96 104.988 770.8 105.568 770.8C106.128 770.8 106.578 770.96 106.918 771.28C107.258 771.6 107.428 772.03 107.428 772.57V775.33H109.978C110.518 775.33 110.928 775.45 111.208 775.69C111.508 775.93 111.658 776.28 111.658 776.74C111.658 777.2 111.508 777.55 111.208 777.79C110.928 778.03 110.518 778.15 109.978 778.15H107.428V784.96C107.428 786.44 108.108 787.23 109.468 787.33L110.278 787.39ZM120.461 774.97C122.501 774.97 124.011 775.48 124.991 776.5C125.991 777.5 126.491 779.03 126.491 781.09V788.41C126.491 788.95 126.331 789.38 126.011 789.7C125.691 790 125.251 790.15 124.691 790.15C124.171 790.15 123.741 789.99 123.401 789.67C123.081 789.35 122.921 788.93 122.921 788.41V787.75C122.581 788.53 122.041 789.14 121.301 789.58C120.581 790.02 119.741 790.24 118.781 790.24C117.801 790.24 116.911 790.04 116.111 789.64C115.311 789.24 114.681 788.69 114.221 787.99C113.761 787.29 113.531 786.51 113.531 785.65C113.531 784.57 113.801 783.72 114.341 783.1C114.901 782.48 115.801 782.03 117.041 781.75C118.281 781.47 119.991 781.33 122.171 781.33H122.921V780.64C122.921 779.66 122.711 778.95 122.291 778.51C121.871 778.05 121.191 777.82 120.251 777.82C119.671 777.82 119.081 777.91 118.481 778.09C117.881 778.25 117.171 778.49 116.351 778.81C115.831 779.07 115.451 779.2 115.211 779.2C114.851 779.2 114.551 779.07 114.311 778.81C114.091 778.55 113.981 778.21 113.981 777.79C113.981 777.45 114.061 777.16 114.221 776.92C114.401 776.66 114.691 776.42 115.091 776.2C115.791 775.82 116.621 775.52 117.581 775.3C118.561 775.08 119.521 774.97 120.461 774.97ZM119.531 787.54C120.531 787.54 121.341 787.21 121.961 786.55C122.601 785.87 122.921 785 122.921 783.94V783.31H122.381C121.041 783.31 120.001 783.37 119.261 783.49C118.521 783.61 117.991 783.82 117.671 784.12C117.351 784.42 117.191 784.83 117.191 785.35C117.191 785.99 117.411 786.52 117.851 786.94C118.311 787.34 118.871 787.54 119.531 787.54ZM138.291 787.39C139.291 787.45 139.791 787.9 139.791 788.74C139.791 789.22 139.591 789.59 139.191 789.85C138.811 790.09 138.261 790.19 137.541 790.15L136.731 790.09C133.371 789.85 131.691 788.05 131.691 784.69V778.15H130.191C129.651 778.15 129.231 778.03 128.931 777.79C128.651 777.55 128.511 777.2 128.511 776.74C128.511 776.28 128.651 775.93 128.931 775.69C129.231 775.45 129.651 775.33 130.191 775.33H131.691V772.57C131.691 772.03 131.861 771.6 132.201 771.28C132.541 770.96 133.001 770.8 133.581 770.8C134.141 770.8 134.591 770.96 134.931 771.28C135.271 771.6 135.441 772.03 135.441 772.57V775.33H137.991C138.531 775.33 138.941 775.45 139.221 775.69C139.521 775.93 139.671 776.28 139.671 776.74C139.671 777.2 139.521 777.55 139.221 777.79C138.941 778.03 138.531 778.15 137.991 778.15H135.441V784.96C135.441 786.44 136.121 787.23 137.481 787.33L138.291 787.39ZM147.423 790.24C145.243 790.24 143.483 789.81 142.143 788.95C141.503 788.57 141.183 788.03 141.183 787.33C141.183 786.93 141.293 786.61 141.513 786.37C141.733 786.11 142.003 785.98 142.323 785.98C142.663 785.98 143.133 786.14 143.733 786.46C144.373 786.76 144.953 786.99 145.473 787.15C146.013 787.31 146.693 787.39 147.513 787.39C148.353 787.39 149.003 787.25 149.463 786.97C149.943 786.69 150.183 786.3 150.183 785.8C150.183 785.46 150.083 785.19 149.883 784.99C149.703 784.79 149.363 784.61 148.863 784.45C148.383 784.27 147.643 784.07 146.643 783.85C144.863 783.49 143.583 782.98 142.803 782.32C142.043 781.66 141.663 780.75 141.663 779.59C141.663 778.71 141.923 777.92 142.443 777.22C142.963 776.5 143.673 775.95 144.573 775.57C145.493 775.17 146.533 774.97 147.693 774.97C148.533 774.97 149.343 775.08 150.123 775.3C150.903 775.5 151.603 775.8 152.223 776.2C152.863 776.6 153.183 777.13 153.183 777.79C153.183 778.19 153.073 778.53 152.853 778.81C152.633 779.07 152.363 779.2 152.043 779.2C151.823 779.2 151.603 779.16 151.383 779.08C151.183 778.98 150.923 778.84 150.603 778.66C150.023 778.36 149.523 778.14 149.103 778C148.683 777.84 148.163 777.76 147.543 777.76C146.803 777.76 146.213 777.91 145.773 778.21C145.353 778.51 145.143 778.92 145.143 779.44C145.143 779.94 145.363 780.32 145.803 780.58C146.243 780.84 147.093 781.1 148.353 781.36C149.693 781.64 150.743 781.96 151.503 782.32C152.263 782.68 152.803 783.13 153.123 783.67C153.463 784.21 153.633 784.9 153.633 785.74C153.633 787.1 153.063 788.19 151.923 789.01C150.803 789.83 149.303 790.24 147.423 790.24ZM174.472 774.97C176.072 774.97 177.292 775.45 178.132 776.41C178.992 777.35 179.422 778.88 179.422 781V788.38C179.422 788.96 179.242 789.41 178.882 789.73C178.542 790.03 178.092 790.18 177.532 790.18C176.992 790.18 176.542 790.03 176.182 789.73C175.842 789.41 175.672 788.96 175.672 788.38V781C175.672 779.9 175.472 779.12 175.072 778.66C174.692 778.18 174.102 777.94 173.302 777.94C172.322 777.94 171.542 778.28 170.962 778.96C170.382 779.62 170.092 780.53 170.092 781.69V788.38C170.092 788.96 169.912 789.41 169.552 789.73C169.212 790.03 168.772 790.18 168.232 790.18C167.692 790.18 167.242 790.03 166.882 789.73C166.522 789.41 166.342 788.96 166.342 788.38V781C166.342 779.9 166.142 779.12 165.742 778.66C165.362 778.18 164.772 777.94 163.972 777.94C162.992 777.94 162.212 778.28 161.632 778.96C161.072 779.62 160.792 780.53 160.792 781.69V788.38C160.792 788.96 160.612 789.41 160.252 789.73C159.892 790.03 159.442 790.18 158.902 790.18C158.362 790.18 157.912 790.03 157.552 789.73C157.212 789.41 157.042 788.96 157.042 788.38V776.77C157.042 776.21 157.222 775.78 157.582 775.48C157.942 775.18 158.392 775.03 158.932 775.03C159.452 775.03 159.872 775.18 160.192 775.48C160.532 775.76 160.702 776.17 160.702 776.71V777.43C161.162 776.63 161.772 776.02 162.532 775.6C163.312 775.18 164.202 774.97 165.202 774.97C167.402 774.97 168.872 775.89 169.612 777.73C170.052 776.89 170.702 776.22 171.562 775.72C172.422 775.22 173.392 774.97 174.472 774.97ZM190.292 790.24C188.792 790.24 187.472 789.93 186.332 789.31C185.212 788.69 184.342 787.8 183.722 786.64C183.102 785.48 182.792 784.13 182.792 782.59C182.792 781.05 183.102 779.71 183.722 778.57C184.342 777.41 185.212 776.52 186.332 775.9C187.472 775.28 188.792 774.97 190.292 774.97C191.792 774.97 193.102 775.28 194.222 775.9C195.362 776.52 196.232 777.41 196.832 778.57C197.452 779.71 197.762 781.05 197.762 782.59C197.762 784.13 197.452 785.48 196.832 786.64C196.232 787.8 195.362 788.69 194.222 789.31C193.102 789.93 191.792 790.24 190.292 790.24ZM190.262 787.33C191.482 787.33 192.412 786.93 193.052 786.13C193.692 785.33 194.012 784.15 194.012 782.59C194.012 781.05 193.692 779.88 193.052 779.08C192.412 778.26 191.492 777.85 190.292 777.85C189.092 777.85 188.162 778.26 187.502 779.08C186.862 779.88 186.542 781.05 186.542 782.59C186.542 784.15 186.862 785.33 187.502 786.13C188.142 786.93 189.062 787.33 190.262 787.33ZM213.467 768.7C214.027 768.7 214.487 768.86 214.847 769.18C215.207 769.5 215.387 769.92 215.387 770.44V788.38C215.387 788.92 215.217 789.35 214.877 789.67C214.537 789.99 214.087 790.15 213.527 790.15C212.967 790.15 212.517 789.99 212.177 789.67C211.837 789.35 211.667 788.92 211.667 788.38V787.63C211.227 788.45 210.587 789.09 209.747 789.55C208.927 790.01 207.987 790.24 206.927 790.24C205.667 790.24 204.537 789.92 203.537 789.28C202.557 788.64 201.787 787.74 201.227 786.58C200.687 785.4 200.417 784.05 200.417 782.53C200.417 781.01 200.687 779.68 201.227 778.54C201.787 777.4 202.557 776.52 203.537 775.9C204.517 775.28 205.647 774.97 206.927 774.97C207.987 774.97 208.927 775.19 209.747 775.63C210.567 776.07 211.197 776.69 211.637 777.49V770.38C211.637 769.88 211.797 769.48 212.117 769.18C212.457 768.86 212.907 768.7 213.467 768.7ZM207.917 787.33C209.117 787.33 210.037 786.92 210.677 786.1C211.337 785.28 211.667 784.11 211.667 782.59C211.667 781.07 211.337 779.91 210.677 779.11C210.037 778.29 209.127 777.88 207.947 777.88C206.747 777.88 205.817 778.28 205.157 779.08C204.497 779.88 204.167 781.03 204.167 782.53C204.167 784.05 204.497 785.23 205.157 786.07C205.817 786.91 206.737 787.33 207.917 787.33ZM231.223 785.98C231.563 785.98 231.833 786.11 232.033 786.37C232.253 786.63 232.363 786.98 232.363 787.42C232.363 788.04 231.993 788.56 231.253 788.98C230.573 789.36 229.803 789.67 228.943 789.91C228.083 790.13 227.263 790.24 226.483 790.24C224.123 790.24 222.253 789.56 220.873 788.2C219.493 786.84 218.803 784.98 218.803 782.62C218.803 781.12 219.103 779.79 219.703 778.63C220.303 777.47 221.143 776.57 222.223 775.93C223.323 775.29 224.563 774.97 225.943 774.97C227.263 774.97 228.413 775.26 229.393 775.84C230.373 776.42 231.133 777.24 231.673 778.3C232.213 779.36 232.483 780.61 232.483 782.05C232.483 782.91 232.103 783.34 231.343 783.34H222.493C222.613 784.72 223.003 785.74 223.663 786.4C224.323 787.04 225.283 787.36 226.543 787.36C227.183 787.36 227.743 787.28 228.223 787.12C228.723 786.96 229.283 786.74 229.903 786.46C230.503 786.14 230.943 785.98 231.223 785.98ZM226.033 777.61C225.013 777.61 224.193 777.93 223.573 778.57C222.973 779.21 222.613 780.13 222.493 781.33H229.273C229.233 780.11 228.933 779.19 228.373 778.57C227.813 777.93 227.033 777.61 226.033 777.61ZM237.779 790.18C237.239 790.18 236.789 790.03 236.429 789.73C236.089 789.41 235.919 788.96 235.919 788.38V770.47C235.919 769.89 236.089 769.45 236.429 769.15C236.789 768.85 237.239 768.7 237.779 768.7C238.319 768.7 238.769 768.85 239.129 769.15C239.489 769.45 239.669 769.89 239.669 770.47V788.38C239.669 788.96 239.489 789.41 239.129 789.73C238.769 790.03 238.319 790.18 237.779 790.18Z" fill="white"/>
<path d="M779.627 848.44C780.299 848.44 780.827 848.656 781.211 849.088C781.619 849.496 781.823 850.048 781.823 850.744V871.876C781.823 872.572 781.619 873.136 781.211 873.568C780.803 874 780.275 874.216 779.627 874.216C778.859 874.216 778.271 873.94 777.863 873.388L764.723 856.288V871.876C764.723 872.572 764.531 873.136 764.147 873.568C763.763 874 763.235 874.216 762.563 874.216C761.891 874.216 761.363 874 760.979 873.568C760.595 873.136 760.403 872.572 760.403 871.876V850.744C760.403 850.048 760.607 849.496 761.015 849.088C761.423 848.656 761.963 848.44 762.635 848.44C763.379 848.44 763.955 848.716 764.363 849.268L777.467 866.296V850.744C777.467 850.048 777.659 849.496 778.043 849.088C778.451 848.656 778.979 848.44 779.627 848.44ZM801.166 856.036C801.862 856.036 802.414 856.228 802.822 856.612C803.23 856.996 803.434 857.512 803.434 858.16V872.128C803.434 872.752 803.218 873.256 802.786 873.64C802.378 874.024 801.838 874.216 801.166 874.216C800.518 874.216 800.002 874.036 799.618 873.676C799.234 873.316 799.042 872.824 799.042 872.2V871.3C798.49 872.26 797.746 873.004 796.81 873.532C795.874 874.036 794.818 874.288 793.642 874.288C789.322 874.288 787.162 871.864 787.162 867.016V858.16C787.162 857.512 787.366 856.996 787.774 856.612C788.182 856.228 788.722 856.036 789.394 856.036C790.09 856.036 790.642 856.228 791.05 856.612C791.458 856.996 791.662 857.512 791.662 858.16V867.052C791.662 868.3 791.914 869.224 792.418 869.824C792.922 870.424 793.714 870.724 794.794 870.724C796.042 870.724 797.038 870.316 797.782 869.5C798.55 868.66 798.934 867.556 798.934 866.188V858.16C798.934 857.512 799.138 856.996 799.546 856.612C799.954 856.228 800.494 856.036 801.166 856.036ZM829.402 855.964C831.322 855.964 832.786 856.54 833.794 857.692C834.826 858.82 835.342 860.656 835.342 863.2V872.056C835.342 872.752 835.126 873.292 834.694 873.676C834.286 874.036 833.746 874.216 833.074 874.216C832.426 874.216 831.886 874.036 831.454 873.676C831.046 873.292 830.842 872.752 830.842 872.056V863.2C830.842 861.88 830.602 860.944 830.122 860.392C829.666 859.816 828.958 859.528 827.998 859.528C826.822 859.528 825.886 859.936 825.19 860.752C824.494 861.544 824.146 862.636 824.146 864.028V872.056C824.146 872.752 823.93 873.292 823.498 873.676C823.09 874.036 822.562 874.216 821.914 874.216C821.266 874.216 820.726 874.036 820.294 873.676C819.862 873.292 819.646 872.752 819.646 872.056V863.2C819.646 861.88 819.406 860.944 818.926 860.392C818.47 859.816 817.762 859.528 816.802 859.528C815.626 859.528 814.69 859.936 813.994 860.752C813.322 861.544 812.986 862.636 812.986 864.028V872.056C812.986 872.752 812.77 873.292 812.338 873.676C811.906 874.036 811.366 874.216 810.718 874.216C810.07 874.216 809.53 874.036 809.098 873.676C808.69 873.292 808.486 872.752 808.486 872.056V858.124C808.486 857.452 808.702 856.936 809.134 856.576C809.566 856.216 810.106 856.036 810.754 856.036C811.378 856.036 811.882 856.216 812.266 856.576C812.674 856.912 812.878 857.404 812.878 858.052V858.916C813.43 857.956 814.162 857.224 815.074 856.72C816.01 856.216 817.078 855.964 818.278 855.964C820.918 855.964 822.682 857.068 823.57 859.276C824.098 858.268 824.878 857.464 825.91 856.864C826.942 856.264 828.106 855.964 829.402 855.964ZM842.985 874.216C842.289 874.216 841.725 874.012 841.293 873.604C840.885 873.172 840.681 872.596 840.681 871.876V850.816C840.681 850.12 840.873 849.58 841.257 849.196C841.665 848.812 842.217 848.62 842.913 848.62H851.769C854.481 848.62 856.593 849.304 858.105 850.672C859.617 852.016 860.373 853.912 860.373 856.36C860.373 858.808 859.617 860.716 858.105 862.084C856.593 863.452 854.481 864.136 851.769 864.136H845.325V871.876C845.325 872.596 845.109 873.172 844.677 873.604C844.269 874.012 843.705 874.216 842.985 874.216ZM851.193 860.572C854.385 860.572 855.981 859.18 855.981 856.396C855.981 853.612 854.385 852.22 851.193 852.22H845.325V860.572H851.193ZM880.479 849.232C880.911 848.704 881.427 848.44 882.027 848.44C882.579 848.44 883.071 848.656 883.503 849.088C883.935 849.496 884.151 849.988 884.151 850.564C884.151 851.044 883.971 851.5 883.611 851.932L875.439 861.904V871.876C875.439 872.62 875.223 873.196 874.791 873.604C874.359 874.012 873.807 874.216 873.135 874.216C872.439 874.216 871.875 874.012 871.443 873.604C871.011 873.196 870.795 872.62 870.795 871.876V861.904L862.623 851.932C862.263 851.5 862.083 851.044 862.083 850.564C862.083 849.988 862.299 849.496 862.731 849.088C863.163 848.656 863.655 848.44 864.207 848.44C864.807 848.44 865.323 848.704 865.755 849.232L873.135 858.376L880.479 849.232Z" fill="white"/>
<g filter="url(#filter6_dii)">
<ellipse cx="895" cy="410" rx="85" ry="83" fill="#4E4AFF"/>
<ellipse cx="895" cy="410" rx="85" ry="83" fill="url(#paint6_radial)"/>
</g>
<path d="M837.947 417.216C837.251 417.216 836.687 417.012 836.255 416.604C835.847 416.172 835.643 415.596 835.643 414.876V393.816C835.643 393.12 835.835 392.58 836.219 392.196C836.627 391.812 837.179 391.62 837.875 391.62H846.731C849.443 391.62 851.555 392.304 853.067 393.672C854.579 395.016 855.335 396.912 855.335 399.36C855.335 401.808 854.579 403.716 853.067 405.084C851.555 406.452 849.443 407.136 846.731 407.136H840.287V414.876C840.287 415.596 840.071 416.172 839.639 416.604C839.231 417.012 838.667 417.216 837.947 417.216ZM846.155 403.572C849.347 403.572 850.943 402.18 850.943 399.396C850.943 396.612 849.347 395.22 846.155 395.22H840.287V403.572H846.155ZM866.556 398.964C869.004 398.964 870.816 399.576 871.992 400.8C873.192 402 873.792 403.836 873.792 406.308V415.092C873.792 415.74 873.6 416.256 873.216 416.64C872.832 417 872.304 417.18 871.632 417.18C871.008 417.18 870.492 416.988 870.084 416.604C869.7 416.22 869.508 415.716 869.508 415.092V414.3C869.1 415.236 868.452 415.968 867.564 416.496C866.7 417.024 865.692 417.288 864.54 417.288C863.364 417.288 862.296 417.048 861.336 416.568C860.376 416.088 859.62 415.428 859.068 414.588C858.516 413.748 858.24 412.812 858.24 411.78C858.24 410.484 858.564 409.464 859.212 408.72C859.884 407.976 860.964 407.436 862.452 407.1C863.94 406.764 865.992 406.596 868.608 406.596H869.508V405.768C869.508 404.592 869.256 403.74 868.752 403.212C868.248 402.66 867.432 402.384 866.304 402.384C865.608 402.384 864.9 402.492 864.18 402.708C863.46 402.9 862.608 403.188 861.624 403.572C861 403.884 860.544 404.04 860.256 404.04C859.824 404.04 859.464 403.884 859.176 403.572C858.912 403.26 858.78 402.852 858.78 402.348C858.78 401.94 858.876 401.592 859.068 401.304C859.284 400.992 859.632 400.704 860.112 400.44C860.952 399.984 861.948 399.624 863.1 399.36C864.276 399.096 865.428 398.964 866.556 398.964ZM865.44 414.048C866.64 414.048 867.612 413.652 868.356 412.86C869.124 412.044 869.508 411 869.508 409.728V408.972H868.86C867.252 408.972 866.004 409.044 865.116 409.188C864.228 409.332 863.592 409.584 863.208 409.944C862.824 410.304 862.632 410.796 862.632 411.42C862.632 412.188 862.896 412.824 863.424 413.328C863.976 413.808 864.648 414.048 865.44 414.048ZM888.958 398.964C891.07 398.964 892.642 399.564 893.674 400.764C894.706 401.964 895.222 403.776 895.222 406.2V415.056C895.222 415.728 895.018 416.256 894.61 416.64C894.226 417.024 893.686 417.216 892.99 417.216C892.294 417.216 891.742 417.024 891.334 416.64C890.926 416.256 890.722 415.728 890.722 415.056V406.452C890.722 405.084 890.458 404.088 889.93 403.464C889.426 402.84 888.622 402.528 887.518 402.528C886.222 402.528 885.178 402.936 884.386 403.752C883.618 404.568 883.234 405.66 883.234 407.028V415.056C883.234 415.728 883.03 416.256 882.622 416.64C882.214 417.024 881.662 417.216 880.966 417.216C880.27 417.216 879.718 417.024 879.31 416.64C878.926 416.256 878.734 415.728 878.734 415.056V401.124C878.734 400.5 878.938 399.996 879.346 399.612C879.754 399.228 880.306 399.036 881.002 399.036C881.626 399.036 882.13 399.228 882.514 399.612C882.922 399.972 883.126 400.452 883.126 401.052V402.024C883.726 401.04 884.53 400.284 885.538 399.756C886.546 399.228 887.686 398.964 888.958 398.964ZM914.849 391.44C915.521 391.44 916.073 391.632 916.505 392.016C916.937 392.4 917.153 392.904 917.153 393.528V415.056C917.153 415.704 916.949 416.22 916.541 416.604C916.133 416.988 915.593 417.18 914.921 417.18C914.249 417.18 913.709 416.988 913.301 416.604C912.893 416.22 912.689 415.704 912.689 415.056V414.156C912.161 415.14 911.393 415.908 910.385 416.46C909.401 417.012 908.273 417.288 907.001 417.288C905.489 417.288 904.133 416.904 902.933 416.136C901.757 415.368 900.833 414.288 900.161 412.896C899.513 411.48 899.189 409.86 899.189 408.036C899.189 406.212 899.513 404.616 900.161 403.248C900.833 401.88 901.757 400.824 902.933 400.08C904.109 399.336 905.465 398.964 907.001 398.964C908.273 398.964 909.401 399.228 910.385 399.756C911.369 400.284 912.125 401.028 912.653 401.988V393.456C912.653 392.856 912.845 392.376 913.229 392.016C913.637 391.632 914.177 391.44 914.849 391.44ZM908.189 413.796C909.629 413.796 910.733 413.304 911.501 412.32C912.293 411.336 912.689 409.932 912.689 408.108C912.689 406.284 912.293 404.892 911.501 403.932C910.733 402.948 909.641 402.456 908.225 402.456C906.785 402.456 905.669 402.936 904.877 403.896C904.085 404.856 903.689 406.236 903.689 408.036C903.689 409.86 904.085 411.276 904.877 412.284C905.669 413.292 906.773 413.796 908.189 413.796ZM929.783 398.964C932.231 398.964 934.043 399.576 935.219 400.8C936.419 402 937.019 403.836 937.019 406.308V415.092C937.019 415.74 936.827 416.256 936.443 416.64C936.059 417 935.531 417.18 934.859 417.18C934.235 417.18 933.719 416.988 933.311 416.604C932.927 416.22 932.735 415.716 932.735 415.092V414.3C932.327 415.236 931.679 415.968 930.791 416.496C929.927 417.024 928.919 417.288 927.767 417.288C926.591 417.288 925.523 417.048 924.563 416.568C923.603 416.088 922.847 415.428 922.295 414.588C921.743 413.748 921.467 412.812 921.467 411.78C921.467 410.484 921.791 409.464 922.439 408.72C923.111 407.976 924.191 407.436 925.679 407.1C927.167 406.764 929.219 406.596 931.835 406.596H932.735V405.768C932.735 404.592 932.483 403.74 931.979 403.212C931.475 402.66 930.659 402.384 929.531 402.384C928.835 402.384 928.127 402.492 927.407 402.708C926.687 402.9 925.835 403.188 924.851 403.572C924.227 403.884 923.771 404.04 923.483 404.04C923.051 404.04 922.691 403.884 922.403 403.572C922.139 403.26 922.007 402.852 922.007 402.348C922.007 401.94 922.103 401.592 922.295 401.304C922.511 400.992 922.859 400.704 923.339 400.44C924.179 399.984 925.175 399.624 926.327 399.36C927.503 399.096 928.655 398.964 929.783 398.964ZM928.667 414.048C929.867 414.048 930.839 413.652 931.583 412.86C932.351 412.044 932.735 411 932.735 409.728V408.972H932.087C930.479 408.972 929.231 409.044 928.343 409.188C927.455 409.332 926.819 409.584 926.435 409.944C926.051 410.304 925.859 410.796 925.859 411.42C925.859 412.188 926.123 412.824 926.651 413.328C927.203 413.808 927.875 414.048 928.667 414.048ZM948.332 417.288C945.716 417.288 943.604 416.772 941.996 415.74C941.228 415.284 940.844 414.636 940.844 413.796C940.844 413.316 940.976 412.932 941.24 412.644C941.504 412.332 941.828 412.176 942.212 412.176C942.62 412.176 943.184 412.368 943.904 412.752C944.672 413.112 945.368 413.388 945.992 413.58C946.64 413.772 947.456 413.868 948.44 413.868C949.448 413.868 950.228 413.7 950.78 413.364C951.356 413.028 951.644 412.56 951.644 411.96C951.644 411.552 951.524 411.228 951.284 410.988C951.068 410.748 950.66 410.532 950.06 410.34C949.484 410.124 948.596 409.884 947.396 409.62C945.26 409.188 943.724 408.576 942.788 407.784C941.876 406.992 941.42 405.9 941.42 404.508C941.42 403.452 941.732 402.504 942.356 401.664C942.98 400.8 943.832 400.14 944.912 399.684C946.016 399.204 947.264 398.964 948.656 398.964C949.664 398.964 950.636 399.096 951.572 399.36C952.508 399.6 953.348 399.96 954.092 400.44C954.86 400.92 955.244 401.556 955.244 402.348C955.244 402.828 955.112 403.236 954.848 403.572C954.584 403.884 954.26 404.04 953.876 404.04C953.612 404.04 953.348 403.992 953.084 403.896C952.844 403.776 952.532 403.608 952.148 403.392C951.452 403.032 950.852 402.768 950.348 402.6C949.844 402.408 949.22 402.312 948.476 402.312C947.588 402.312 946.88 402.492 946.352 402.852C945.848 403.212 945.596 403.704 945.596 404.328C945.596 404.928 945.86 405.384 946.388 405.696C946.916 406.008 947.936 406.32 949.448 406.632C951.056 406.968 952.316 407.352 953.228 407.784C954.14 408.216 954.788 408.756 955.172 409.404C955.58 410.052 955.784 410.88 955.784 411.888C955.784 413.52 955.1 414.828 953.732 415.812C952.388 416.796 950.588 417.288 948.332 417.288Z" fill="white"/>
<path d="M449.535 991.324C447.687 991.324 445.935 991.084 444.279 990.604C442.647 990.1 441.315 989.428 440.283 988.588C439.731 988.18 439.455 987.604 439.455 986.86C439.455 986.356 439.599 985.924 439.887 985.564C440.199 985.18 440.559 984.988 440.967 984.988C441.399 984.988 441.891 985.156 442.443 985.492C443.475 986.236 444.555 986.776 445.683 987.112C446.811 987.448 448.059 987.616 449.427 987.616C451.179 987.616 452.523 987.316 453.459 986.716C454.395 986.092 454.863 985.192 454.863 984.016C454.863 983.104 454.419 982.408 453.531 981.928C452.667 981.424 451.215 980.944 449.175 980.488C447.063 980.032 445.347 979.504 444.027 978.904C442.707 978.304 441.711 977.536 441.039 976.6C440.367 975.664 440.031 974.476 440.031 973.036C440.031 971.548 440.451 970.216 441.291 969.04C442.131 967.864 443.295 966.952 444.783 966.304C446.295 965.632 447.987 965.296 449.859 965.296C453.291 965.296 456.087 966.208 458.247 968.032C458.559 968.296 458.775 968.56 458.895 968.824C459.039 969.064 459.111 969.376 459.111 969.76C459.111 970.264 458.955 970.708 458.643 971.092C458.355 971.452 458.007 971.632 457.599 971.632C457.359 971.632 457.131 971.596 456.915 971.524C456.723 971.452 456.459 971.32 456.123 971.128C455.139 970.408 454.179 969.88 453.243 969.544C452.331 969.184 451.203 969.004 449.859 969.004C448.227 969.004 446.931 969.34 445.971 970.012C445.035 970.66 444.567 971.572 444.567 972.748C444.567 973.732 444.987 974.488 445.827 975.016C446.667 975.544 448.095 976.036 450.111 976.492C452.247 976.972 453.975 977.512 455.295 978.112C456.639 978.688 457.659 979.432 458.355 980.344C459.075 981.256 459.435 982.396 459.435 983.764C459.435 985.252 459.015 986.572 458.175 987.724C457.359 988.852 456.195 989.74 454.683 990.388C453.195 991.012 451.479 991.324 449.535 991.324ZM471.492 991.288C469.74 991.288 468.192 990.916 466.848 990.172C465.528 989.428 464.508 988.372 463.788 987.004C463.068 985.636 462.708 984.04 462.708 982.216C462.708 980.392 463.08 978.784 463.824 977.392C464.592 975.976 465.66 974.884 467.028 974.116C468.396 973.348 469.968 972.964 471.744 972.964C472.68 972.964 473.616 973.096 474.552 973.36C475.512 973.624 476.352 973.984 477.072 974.44C477.84 974.944 478.224 975.58 478.224 976.348C478.224 976.876 478.092 977.308 477.828 977.644C477.588 977.956 477.264 978.112 476.856 978.112C476.592 978.112 476.316 978.052 476.028 977.932C475.74 977.812 475.452 977.668 475.164 977.5C474.636 977.188 474.132 976.948 473.652 976.78C473.172 976.588 472.62 976.492 471.996 976.492C470.508 976.492 469.356 976.984 468.54 977.968C467.748 978.928 467.352 980.32 467.352 982.144C467.352 983.944 467.748 985.336 468.54 986.32C469.356 987.28 470.508 987.76 471.996 987.76C472.596 987.76 473.124 987.676 473.58 987.508C474.06 987.316 474.588 987.064 475.164 986.752C475.524 986.536 475.836 986.38 476.1 986.284C476.364 986.164 476.628 986.104 476.892 986.104C477.276 986.104 477.6 986.272 477.864 986.608C478.128 986.944 478.26 987.364 478.26 987.868C478.26 988.276 478.164 988.636 477.972 988.948C477.804 989.236 477.516 989.5 477.108 989.74C476.364 990.22 475.5 990.604 474.516 990.892C473.532 991.156 472.524 991.288 471.492 991.288ZM483.859 991.216C483.211 991.216 482.671 991.036 482.239 990.676C481.831 990.292 481.627 989.752 481.627 989.056V975.16C481.627 974.464 481.831 973.936 482.239 973.576C482.671 973.216 483.211 973.036 483.859 973.036C484.507 973.036 485.047 973.216 485.479 973.576C485.911 973.936 486.127 974.464 486.127 975.16V989.056C486.127 989.752 485.911 990.292 485.479 990.676C485.047 991.036 484.507 991.216 483.859 991.216ZM483.859 969.832C483.043 969.832 482.395 969.616 481.915 969.184C481.435 968.728 481.195 968.14 481.195 967.42C481.195 966.7 481.435 966.124 481.915 965.692C482.395 965.26 483.043 965.044 483.859 965.044C484.651 965.044 485.287 965.26 485.767 965.692C486.271 966.124 486.523 966.7 486.523 967.42C486.523 968.14 486.283 968.728 485.803 969.184C485.323 969.616 484.675 969.832 483.859 969.832ZM493.836 991.216C493.14 991.216 492.576 991.012 492.144 990.604C491.736 990.172 491.532 989.596 491.532 988.876V967.816C491.532 967.12 491.724 966.58 492.108 966.196C492.516 965.812 493.068 965.62 493.764 965.62H502.62C505.332 965.62 507.444 966.304 508.956 967.672C510.468 969.016 511.224 970.912 511.224 973.36C511.224 975.808 510.468 977.716 508.956 979.084C507.444 980.452 505.332 981.136 502.62 981.136H496.176V988.876C496.176 989.596 495.96 990.172 495.528 990.604C495.12 991.012 494.556 991.216 493.836 991.216ZM502.044 977.572C505.236 977.572 506.832 976.18 506.832 973.396C506.832 970.612 505.236 969.22 502.044 969.22H496.176V977.572H502.044ZM527.652 974.332C527.844 973.9 528.096 973.588 528.408 973.396C528.744 973.18 529.104 973.072 529.488 973.072C530.04 973.072 530.532 973.264 530.964 973.648C531.42 974.008 531.648 974.464 531.648 975.016C531.648 975.28 531.576 975.556 531.432 975.844L521.604 996.436C521.196 997.252 520.56 997.66 519.696 997.66C519.144 997.66 518.652 997.48 518.22 997.12C517.812 996.784 517.608 996.352 517.608 995.824C517.608 995.56 517.68 995.26 517.824 994.924L520.272 989.776L513.576 975.844C513.456 975.604 513.396 975.328 513.396 975.016C513.396 974.464 513.624 973.996 514.08 973.612C514.56 973.228 515.1 973.036 515.7 973.036C516.108 973.036 516.48 973.144 516.816 973.36C517.152 973.552 517.416 973.864 517.608 974.296L522.648 985.42L527.652 974.332Z" fill="white"/>
<path d="M415.914 587.384C414.676 587.384 413.674 587.021 412.906 586.296C412.18 585.528 411.818 584.504 411.818 583.224V545.784C411.818 544.547 412.159 543.587 412.842 542.904C413.567 542.221 414.548 541.88 415.786 541.88H431.53C436.351 541.88 440.106 543.096 442.794 545.528C445.482 547.917 446.826 551.288 446.826 555.64C446.826 559.992 445.482 563.384 442.794 565.816C440.106 568.248 436.351 569.464 431.53 569.464H420.074V583.224C420.074 584.504 419.69 585.528 418.922 586.296C418.196 587.021 417.194 587.384 415.914 587.384ZM430.506 563.128C436.18 563.128 439.018 560.653 439.018 555.704C439.018 550.755 436.18 548.28 430.506 548.28H420.074V563.128H430.506ZM475.744 557.368C476.085 556.6 476.533 556.045 477.088 555.704C477.685 555.32 478.325 555.128 479.008 555.128C479.989 555.128 480.864 555.469 481.632 556.152C482.442 556.792 482.848 557.603 482.848 558.584C482.848 559.053 482.72 559.544 482.464 560.056L464.992 596.664C464.266 598.115 463.136 598.84 461.6 598.84C460.618 598.84 459.744 598.52 458.976 597.88C458.25 597.283 457.888 596.515 457.888 595.576C457.888 595.107 458.016 594.573 458.272 593.976L462.624 584.824L450.72 560.056C450.506 559.629 450.4 559.139 450.4 558.584C450.4 557.603 450.805 556.771 451.616 556.088C452.469 555.405 453.429 555.064 454.496 555.064C455.221 555.064 455.882 555.256 456.48 555.64C457.077 555.981 457.546 556.536 457.888 557.304L466.848 577.08L475.744 557.368ZM505.044 581.432C507.178 581.56 508.244 582.52 508.244 584.312C508.244 585.336 507.818 586.125 506.964 586.68C506.154 587.192 504.98 587.405 503.444 587.32L501.716 587.192C494.548 586.68 490.964 582.84 490.964 575.672V561.72H487.764C486.612 561.72 485.716 561.464 485.076 560.952C484.479 560.44 484.18 559.693 484.18 558.712C484.18 557.731 484.479 556.984 485.076 556.472C485.716 555.96 486.612 555.704 487.764 555.704H490.964V549.816C490.964 548.664 491.327 547.747 492.052 547.064C492.778 546.381 493.759 546.04 494.996 546.04C496.191 546.04 497.151 546.381 497.876 547.064C498.602 547.747 498.964 548.664 498.964 549.816V555.704H504.404C505.556 555.704 506.431 555.96 507.028 556.472C507.668 556.984 507.988 557.731 507.988 558.712C507.988 559.693 507.668 560.44 507.028 560.952C506.431 561.464 505.556 561.72 504.404 561.72H498.964V576.248C498.964 579.405 500.415 581.091 503.316 581.304L505.044 581.432ZM531.086 554.936C538.424 554.936 542.094 559.224 542.094 567.8V583.544C542.094 584.739 541.731 585.677 541.006 586.36C540.323 587.043 539.363 587.384 538.126 587.384C536.888 587.384 535.907 587.043 535.182 586.36C534.456 585.677 534.094 584.739 534.094 583.544V567.8C534.094 565.539 533.624 563.896 532.686 562.872C531.79 561.805 530.36 561.272 528.398 561.272C526.094 561.272 524.238 561.997 522.83 563.448C521.464 564.899 520.782 566.84 520.782 569.272V583.544C520.782 584.739 520.419 585.677 519.694 586.36C518.968 587.043 517.987 587.384 516.75 587.384C515.512 587.384 514.531 587.043 513.806 586.36C513.123 585.677 512.782 584.739 512.782 583.544V545.272C512.782 544.163 513.144 543.267 513.87 542.584C514.638 541.901 515.619 541.56 516.814 541.56C518.008 541.56 518.968 541.88 519.694 542.52C520.419 543.16 520.782 544.035 520.782 545.144V560.056C521.848 558.392 523.256 557.133 525.006 556.28C526.798 555.384 528.824 554.936 531.086 554.936ZM564.86 587.512C561.66 587.512 558.844 586.851 556.412 585.528C554.022 584.205 552.166 582.307 550.844 579.832C549.521 577.357 548.86 574.477 548.86 571.192C548.86 567.907 549.521 565.048 550.844 562.616C552.166 560.141 554.022 558.243 556.412 556.92C558.844 555.597 561.66 554.936 564.86 554.936C568.06 554.936 570.854 555.597 573.244 556.92C575.676 558.243 577.532 560.141 578.812 562.616C580.134 565.048 580.796 567.907 580.796 571.192C580.796 574.477 580.134 577.357 578.812 579.832C577.532 582.307 575.676 584.205 573.244 585.528C570.854 586.851 568.06 587.512 564.86 587.512ZM564.796 581.304C567.398 581.304 569.382 580.451 570.748 578.744C572.113 577.037 572.796 574.52 572.796 571.192C572.796 567.907 572.113 565.411 570.748 563.704C569.382 561.955 567.42 561.08 564.86 561.08C562.3 561.08 560.316 561.955 558.908 563.704C557.542 565.411 556.86 567.907 556.86 571.192C556.86 574.52 557.542 577.037 558.908 578.744C560.273 580.451 562.236 581.304 564.796 581.304ZM605.945 554.936C609.699 554.936 612.494 556.003 614.329 558.136C616.163 560.269 617.081 563.491 617.081 567.8V583.544C617.081 584.739 616.718 585.677 615.993 586.36C615.31 587.043 614.35 587.384 613.113 587.384C611.875 587.384 610.894 587.043 610.169 586.36C609.443 585.677 609.081 584.739 609.081 583.544V568.248C609.081 565.816 608.611 564.045 607.673 562.936C606.777 561.827 605.347 561.272 603.385 561.272C601.081 561.272 599.225 561.997 597.817 563.448C596.451 564.899 595.769 566.84 595.769 569.272V583.544C595.769 584.739 595.406 585.677 594.681 586.36C593.955 587.043 592.974 587.384 591.737 587.384C590.499 587.384 589.518 587.043 588.793 586.36C588.11 585.677 587.769 584.739 587.769 583.544V558.776C587.769 557.667 588.131 556.771 588.857 556.088C589.582 555.405 590.563 555.064 591.801 555.064C592.91 555.064 593.806 555.405 594.489 556.088C595.214 556.728 595.577 557.581 595.577 558.648V560.376C596.643 558.627 598.073 557.283 599.865 556.344C601.657 555.405 603.683 554.936 605.945 554.936Z" fill="white"/>
<g filter="url(#filter7_dii)">
<circle cx="319.5" cy="322.5" r="10.5" fill="#4E4AFF"/>
<circle cx="319.5" cy="322.5" r="10.5" fill="url(#paint7_radial)"/>
</g>
<g filter="url(#filter8_dii)">
<circle cx="298.5" cy="707.5" r="10.5" fill="#4E4AFF"/>
<circle cx="298.5" cy="707.5" r="10.5" fill="url(#paint8_radial)"/>
</g>
<g filter="url(#filter9_dii)">
<circle cx="757.5" cy="419.5" r="10.5" fill="#4E4AFF"/>
<circle cx="757.5" cy="419.5" r="10.5" fill="url(#paint9_radial)"/>
</g>
<g filter="url(#filter10_dii)">
<circle cx="688.5" cy="798.5" r="10.5" fill="#4E4AFF"/>
<circle cx="688.5" cy="798.5" r="10.5" fill="url(#paint10_radial)"/>
</g>
<path d="M490.442 163.27C488.902 163.27 487.442 163.07 486.062 162.67C484.702 162.25 483.592 161.69 482.732 160.99C482.272 160.65 482.042 160.17 482.042 159.55C482.042 159.13 482.162 158.77 482.402 158.47C482.662 158.15 482.962 157.99 483.302 157.99C483.662 157.99 484.072 158.13 484.532 158.41C485.392 159.03 486.292 159.48 487.232 159.76C488.172 160.04 489.212 160.18 490.352 160.18C491.812 160.18 492.932 159.93 493.712 159.43C494.492 158.91 494.882 158.16 494.882 157.18C494.882 156.42 494.512 155.84 493.772 155.44C493.052 155.02 491.842 154.62 490.142 154.24C488.382 153.86 486.952 153.42 485.852 152.92C484.752 152.42 483.922 151.78 483.362 151C482.802 150.22 482.522 149.23 482.522 148.03C482.522 146.79 482.872 145.68 483.572 144.7C484.272 143.72 485.242 142.96 486.482 142.42C487.742 141.86 489.152 141.58 490.712 141.58C493.572 141.58 495.902 142.34 497.702 143.86C497.962 144.08 498.142 144.3 498.242 144.52C498.362 144.72 498.422 144.98 498.422 145.3C498.422 145.72 498.292 146.09 498.032 146.41C497.792 146.71 497.502 146.86 497.162 146.86C496.962 146.86 496.772 146.83 496.592 146.77C496.432 146.71 496.212 146.6 495.932 146.44C495.112 145.84 494.312 145.4 493.532 145.12C492.772 144.82 491.832 144.67 490.712 144.67C489.352 144.67 488.272 144.95 487.472 145.51C486.692 146.05 486.302 146.81 486.302 147.79C486.302 148.61 486.652 149.24 487.352 149.68C488.052 150.12 489.242 150.53 490.922 150.91C492.702 151.31 494.142 151.76 495.242 152.26C496.362 152.74 497.212 153.36 497.792 154.12C498.392 154.88 498.692 155.83 498.692 156.97C498.692 158.21 498.342 159.31 497.642 160.27C496.962 161.21 495.992 161.95 494.732 162.49C493.492 163.01 492.062 163.27 490.442 163.27ZM508.802 163.24C507.342 163.24 506.052 162.93 504.932 162.31C503.832 161.69 502.982 160.81 502.382 159.67C501.782 158.53 501.482 157.2 501.482 155.68C501.482 154.16 501.792 152.82 502.412 151.66C503.052 150.48 503.942 149.57 505.082 148.93C506.222 148.29 507.532 147.97 509.012 147.97C509.792 147.97 510.572 148.08 511.352 148.3C512.152 148.52 512.852 148.82 513.452 149.2C514.092 149.62 514.412 150.15 514.412 150.79C514.412 151.23 514.302 151.59 514.082 151.87C513.882 152.13 513.612 152.26 513.272 152.26C513.052 152.26 512.822 152.21 512.582 152.11C512.342 152.01 512.102 151.89 511.862 151.75C511.422 151.49 511.002 151.29 510.602 151.15C510.202 150.99 509.742 150.91 509.222 150.91C507.982 150.91 507.022 151.32 506.342 152.14C505.682 152.94 505.352 154.1 505.352 155.62C505.352 157.12 505.682 158.28 506.342 159.1C507.022 159.9 507.982 160.3 509.222 160.3C509.722 160.3 510.162 160.23 510.542 160.09C510.942 159.93 511.382 159.72 511.862 159.46C512.162 159.28 512.422 159.15 512.642 159.07C512.862 158.97 513.082 158.92 513.302 158.92C513.622 158.92 513.892 159.06 514.112 159.34C514.332 159.62 514.442 159.97 514.442 160.39C514.442 160.73 514.362 161.03 514.202 161.29C514.062 161.53 513.822 161.75 513.482 161.95C512.862 162.35 512.142 162.67 511.322 162.91C510.502 163.13 509.662 163.24 508.802 163.24ZM519.169 163.18C518.629 163.18 518.179 163.03 517.819 162.73C517.479 162.41 517.309 161.96 517.309 161.38V149.8C517.309 149.22 517.479 148.78 517.819 148.48C518.179 148.18 518.629 148.03 519.169 148.03C519.709 148.03 520.159 148.18 520.519 148.48C520.879 148.78 521.059 149.22 521.059 149.8V161.38C521.059 161.96 520.879 162.41 520.519 162.73C520.159 163.03 519.709 163.18 519.169 163.18ZM519.169 145.36C518.489 145.36 517.949 145.18 517.549 144.82C517.149 144.44 516.949 143.95 516.949 143.35C516.949 142.75 517.149 142.27 517.549 141.91C517.949 141.55 518.489 141.37 519.169 141.37C519.829 141.37 520.359 141.55 520.759 141.91C521.179 142.27 521.389 142.75 521.389 143.35C521.389 143.95 521.189 144.44 520.789 144.82C520.389 145.18 519.849 145.36 519.169 145.36ZM538.344 160.09C538.744 160.47 538.944 160.9 538.944 161.38C538.944 161.84 538.774 162.25 538.434 162.61C538.114 162.97 537.734 163.15 537.294 163.15C536.854 163.15 536.444 162.97 536.064 162.61L529.044 156.25V161.38C529.044 161.96 528.864 162.4 528.504 162.7C528.144 163 527.694 163.15 527.154 163.15C526.614 163.15 526.164 163 525.804 162.7C525.464 162.4 525.294 161.96 525.294 161.38V143.47C525.294 142.89 525.464 142.45 525.804 142.15C526.164 141.85 526.614 141.7 527.154 141.7C527.694 141.7 528.144 141.85 528.504 142.15C528.864 142.45 529.044 142.89 529.044 143.47V154.75L535.464 148.6C535.824 148.24 536.234 148.06 536.694 148.06C537.154 148.06 537.554 148.23 537.894 148.57C538.234 148.91 538.404 149.31 538.404 149.77C538.404 150.23 538.214 150.65 537.834 151.03L533.124 155.41L538.344 160.09ZM543.607 163.18C543.067 163.18 542.617 163.03 542.257 162.73C541.917 162.41 541.747 161.96 541.747 161.38V149.8C541.747 149.22 541.917 148.78 542.257 148.48C542.617 148.18 543.067 148.03 543.607 148.03C544.147 148.03 544.597 148.18 544.957 148.48C545.317 148.78 545.497 149.22 545.497 149.8V161.38C545.497 161.96 545.317 162.41 544.957 162.73C544.597 163.03 544.147 163.18 543.607 163.18ZM543.607 145.36C542.927 145.36 542.387 145.18 541.987 144.82C541.587 144.44 541.387 143.95 541.387 143.35C541.387 142.75 541.587 142.27 541.987 141.91C542.387 141.55 542.927 141.37 543.607 141.37C544.267 141.37 544.797 141.55 545.197 141.91C545.617 142.27 545.827 142.75 545.827 143.35C545.827 143.95 545.627 144.44 545.227 144.82C544.827 145.18 544.287 145.36 543.607 145.36ZM557.997 160.39C558.997 160.45 559.497 160.9 559.497 161.74C559.497 162.22 559.297 162.59 558.897 162.85C558.517 163.09 557.967 163.19 557.247 163.15L556.437 163.09C553.077 162.85 551.397 161.05 551.397 157.69V151.15H549.897C549.357 151.15 548.937 151.03 548.637 150.79C548.357 150.55 548.217 150.2 548.217 149.74C548.217 149.28 548.357 148.93 548.637 148.69C548.937 148.45 549.357 148.33 549.897 148.33H551.397V145.57C551.397 145.03 551.567 144.6 551.907 144.28C552.247 143.96 552.707 143.8 553.287 143.8C553.847 143.8 554.297 143.96 554.637 144.28C554.977 144.6 555.147 145.03 555.147 145.57V148.33H557.697C558.237 148.33 558.647 148.45 558.927 148.69C559.227 148.93 559.377 149.28 559.377 149.74C559.377 150.2 559.227 150.55 558.927 150.79C558.647 151.03 558.237 151.15 557.697 151.15H555.147V157.96C555.147 159.44 555.827 160.23 557.187 160.33L557.997 160.39ZM562.938 156.46C562.358 156.46 561.918 156.33 561.618 156.07C561.338 155.81 561.198 155.45 561.198 154.99C561.198 154.53 561.338 154.17 561.618 153.91C561.918 153.63 562.358 153.49 562.938 153.49H569.118C569.698 153.49 570.128 153.63 570.408 153.91C570.708 154.17 570.858 154.53 570.858 154.99C570.858 155.45 570.708 155.81 570.408 156.07C570.128 156.33 569.698 156.46 569.118 156.46H562.938ZM576.705 163.18C576.165 163.18 575.715 163.03 575.355 162.73C575.015 162.41 574.845 161.96 574.845 161.38V143.47C574.845 142.89 575.015 142.45 575.355 142.15C575.715 141.85 576.165 141.7 576.705 141.7C577.245 141.7 577.695 141.85 578.055 142.15C578.415 142.45 578.595 142.89 578.595 143.47V161.38C578.595 161.96 578.415 162.41 578.055 162.73C577.695 163.03 577.245 163.18 576.705 163.18ZM594.44 158.98C594.78 158.98 595.05 159.11 595.25 159.37C595.47 159.63 595.58 159.98 595.58 160.42C595.58 161.04 595.21 161.56 594.47 161.98C593.79 162.36 593.02 162.67 592.16 162.91C591.3 163.13 590.48 163.24 589.7 163.24C587.34 163.24 585.47 162.56 584.09 161.2C582.71 159.84 582.02 157.98 582.02 155.62C582.02 154.12 582.32 152.79 582.92 151.63C583.52 150.47 584.36 149.57 585.44 148.93C586.54 148.29 587.78 147.97 589.16 147.97C590.48 147.97 591.63 148.26 592.61 148.84C593.59 149.42 594.35 150.24 594.89 151.3C595.43 152.36 595.7 153.61 595.7 155.05C595.7 155.91 595.32 156.34 594.56 156.34H585.71C585.83 157.72 586.22 158.74 586.88 159.4C587.54 160.04 588.5 160.36 589.76 160.36C590.4 160.36 590.96 160.28 591.44 160.12C591.94 159.96 592.5 159.74 593.12 159.46C593.72 159.14 594.16 158.98 594.44 158.98ZM589.25 150.61C588.23 150.61 587.41 150.93 586.79 151.57C586.19 152.21 585.83 153.13 585.71 154.33H592.49C592.45 153.11 592.15 152.19 591.59 151.57C591.03 150.93 590.25 150.61 589.25 150.61ZM605.496 147.97C607.536 147.97 609.046 148.48 610.026 149.5C611.026 150.5 611.526 152.03 611.526 154.09V161.41C611.526 161.95 611.366 162.38 611.046 162.7C610.726 163 610.286 163.15 609.726 163.15C609.206 163.15 608.776 162.99 608.436 162.67C608.116 162.35 607.956 161.93 607.956 161.41V160.75C607.616 161.53 607.076 162.14 606.336 162.58C605.616 163.02 604.776 163.24 603.816 163.24C602.836 163.24 601.946 163.04 601.146 162.64C600.346 162.24 599.716 161.69 599.256 160.99C598.796 160.29 598.566 159.51 598.566 158.65C598.566 157.57 598.836 156.72 599.376 156.1C599.936 155.48 600.836 155.03 602.076 154.75C603.316 154.47 605.026 154.33 607.206 154.33H607.956V153.64C607.956 152.66 607.746 151.95 607.326 151.51C606.906 151.05 606.226 150.82 605.286 150.82C604.706 150.82 604.116 150.91 603.516 151.09C602.916 151.25 602.206 151.49 601.386 151.81C600.866 152.07 600.486 152.2 600.246 152.2C599.886 152.2 599.586 152.07 599.346 151.81C599.126 151.55 599.016 151.21 599.016 150.79C599.016 150.45 599.096 150.16 599.256 149.92C599.436 149.66 599.726 149.42 600.126 149.2C600.826 148.82 601.656 148.52 602.616 148.3C603.596 148.08 604.556 147.97 605.496 147.97ZM604.566 160.54C605.566 160.54 606.376 160.21 606.996 159.55C607.636 158.87 607.956 158 607.956 156.94V156.31H607.416C606.076 156.31 605.036 156.37 604.296 156.49C603.556 156.61 603.026 156.82 602.706 157.12C602.386 157.42 602.226 157.83 602.226 158.35C602.226 158.99 602.446 159.52 602.886 159.94C603.346 160.34 603.906 160.54 604.566 160.54ZM623.896 148.03C624.416 147.99 624.826 148.1 625.126 148.36C625.426 148.62 625.576 149.01 625.576 149.53C625.576 150.07 625.446 150.47 625.186 150.73C624.926 150.99 624.456 151.16 623.776 151.24L622.876 151.33C621.696 151.45 620.826 151.85 620.266 152.53C619.726 153.21 619.456 154.06 619.456 155.08V161.38C619.456 161.96 619.276 162.41 618.916 162.73C618.556 163.03 618.106 163.18 617.566 163.18C617.026 163.18 616.576 163.03 616.216 162.73C615.876 162.41 615.706 161.96 615.706 161.38V149.77C615.706 149.21 615.876 148.78 616.216 148.48C616.576 148.18 617.016 148.03 617.536 148.03C618.056 148.03 618.476 148.18 618.796 148.48C619.116 148.76 619.276 149.17 619.276 149.71V150.91C619.656 150.03 620.216 149.35 620.956 148.87C621.716 148.39 622.556 148.12 623.476 148.06L623.896 148.03ZM636.079 147.97C637.839 147.97 639.149 148.47 640.009 149.47C640.869 150.47 641.299 151.98 641.299 154V161.38C641.299 161.94 641.129 162.38 640.789 162.7C640.469 163.02 640.019 163.18 639.439 163.18C638.859 163.18 638.399 163.02 638.059 162.7C637.719 162.38 637.549 161.94 637.549 161.38V154.21C637.549 153.07 637.329 152.24 636.889 151.72C636.469 151.2 635.799 150.94 634.879 150.94C633.799 150.94 632.929 151.28 632.269 151.96C631.629 152.64 631.309 153.55 631.309 154.69V161.38C631.309 161.94 631.139 162.38 630.799 162.7C630.459 163.02 629.999 163.18 629.419 163.18C628.839 163.18 628.379 163.02 628.039 162.7C627.719 162.38 627.559 161.94 627.559 161.38V149.77C627.559 149.25 627.729 148.83 628.069 148.51C628.409 148.19 628.869 148.03 629.449 148.03C629.969 148.03 630.389 148.19 630.709 148.51C631.049 148.81 631.219 149.21 631.219 149.71V150.52C631.719 149.7 632.389 149.07 633.229 148.63C634.069 148.19 635.019 147.97 636.079 147.97Z" fill="white"/>
<path d="M135.021 343.508C135.501 343.964 135.741 344.48 135.741 345.056C135.741 345.608 135.525 346.1 135.093 346.532C134.685 346.94 134.193 347.144 133.617 347.144C133.017 347.144 132.465 346.892 131.961 346.388L119.973 335.156V344.876C119.973 345.572 119.757 346.136 119.325 346.568C118.917 347 118.353 347.216 117.633 347.216C116.937 347.216 116.373 347 115.941 346.568C115.533 346.136 115.329 345.572 115.329 344.876V323.744C115.329 323.048 115.533 322.496 115.941 322.088C116.373 321.656 116.937 321.44 117.633 321.44C118.353 321.44 118.917 321.656 119.325 322.088C119.757 322.496 119.973 323.048 119.973 323.744V332.996L131.565 322.124C131.997 321.692 132.489 321.476 133.041 321.476C133.593 321.476 134.073 321.692 134.481 322.124C134.913 322.532 135.129 323.012 135.129 323.564C135.129 324.116 134.889 324.62 134.409 325.076L124.725 333.932L135.021 343.508ZM152.823 342.176C153.231 342.176 153.555 342.332 153.795 342.644C154.059 342.956 154.191 343.376 154.191 343.904C154.191 344.648 153.747 345.272 152.859 345.776C152.043 346.232 151.119 346.604 150.087 346.892C149.055 347.156 148.071 347.288 147.135 347.288C144.303 347.288 142.059 346.472 140.403 344.84C138.747 343.208 137.919 340.976 137.919 338.144C137.919 336.344 138.279 334.748 138.999 333.356C139.719 331.964 140.727 330.884 142.023 330.116C143.343 329.348 144.831 328.964 146.487 328.964C148.071 328.964 149.451 329.312 150.627 330.008C151.803 330.704 152.715 331.688 153.363 332.96C154.011 334.232 154.335 335.732 154.335 337.46C154.335 338.492 153.879 339.008 152.967 339.008H142.347C142.491 340.664 142.959 341.888 143.751 342.68C144.543 343.448 145.695 343.832 147.207 343.832C147.975 343.832 148.647 343.736 149.223 343.544C149.823 343.352 150.495 343.088 151.239 342.752C151.959 342.368 152.487 342.176 152.823 342.176ZM146.595 332.132C145.371 332.132 144.387 332.516 143.643 333.284C142.923 334.052 142.491 335.156 142.347 336.596H150.483C150.435 335.132 150.075 334.028 149.403 333.284C148.731 332.516 147.795 332.132 146.595 332.132ZM168.213 329.036C168.837 328.988 169.329 329.12 169.689 329.432C170.049 329.744 170.229 330.212 170.229 330.836C170.229 331.484 170.073 331.964 169.761 332.276C169.449 332.588 168.885 332.792 168.069 332.888L166.989 332.996C165.573 333.14 164.529 333.62 163.857 334.436C163.209 335.252 162.885 336.272 162.885 337.496V345.056C162.885 345.752 162.669 346.292 162.237 346.676C161.805 347.036 161.265 347.216 160.617 347.216C159.969 347.216 159.429 347.036 158.997 346.676C158.589 346.292 158.385 345.752 158.385 345.056V331.124C158.385 330.452 158.589 329.936 158.997 329.576C159.429 329.216 159.957 329.036 160.581 329.036C161.205 329.036 161.709 329.216 162.093 329.576C162.477 329.912 162.669 330.404 162.669 331.052V332.492C163.125 331.436 163.797 330.62 164.685 330.044C165.597 329.468 166.605 329.144 167.709 329.072L168.213 329.036ZM180.096 328.964C182.544 328.964 184.356 329.576 185.532 330.8C186.732 332 187.332 333.836 187.332 336.308V345.092C187.332 345.74 187.14 346.256 186.756 346.64C186.372 347 185.844 347.18 185.172 347.18C184.548 347.18 184.032 346.988 183.624 346.604C183.24 346.22 183.048 345.716 183.048 345.092V344.3C182.64 345.236 181.992 345.968 181.104 346.496C180.24 347.024 179.232 347.288 178.08 347.288C176.904 347.288 175.836 347.048 174.876 346.568C173.916 346.088 173.16 345.428 172.608 344.588C172.056 343.748 171.78 342.812 171.78 341.78C171.78 340.484 172.104 339.464 172.752 338.72C173.424 337.976 174.504 337.436 175.992 337.1C177.48 336.764 179.532 336.596 182.148 336.596H183.048V335.768C183.048 334.592 182.796 333.74 182.292 333.212C181.788 332.66 180.972 332.384 179.844 332.384C179.148 332.384 178.44 332.492 177.72 332.708C177 332.9 176.148 333.188 175.164 333.572C174.54 333.884 174.084 334.04 173.796 334.04C173.364 334.04 173.004 333.884 172.716 333.572C172.452 333.26 172.32 332.852 172.32 332.348C172.32 331.94 172.416 331.592 172.608 331.304C172.824 330.992 173.172 330.704 173.652 330.44C174.492 329.984 175.488 329.624 176.64 329.36C177.816 329.096 178.968 328.964 180.096 328.964ZM178.98 344.048C180.18 344.048 181.152 343.652 181.896 342.86C182.664 342.044 183.048 341 183.048 339.728V338.972H182.4C180.792 338.972 179.544 339.044 178.656 339.188C177.768 339.332 177.132 339.584 176.748 339.944C176.364 340.304 176.172 340.796 176.172 341.42C176.172 342.188 176.436 342.824 176.964 343.328C177.516 343.808 178.188 344.048 178.98 344.048ZM198.646 347.288C196.03 347.288 193.918 346.772 192.31 345.74C191.542 345.284 191.158 344.636 191.158 343.796C191.158 343.316 191.29 342.932 191.554 342.644C191.818 342.332 192.142 342.176 192.526 342.176C192.934 342.176 193.498 342.368 194.218 342.752C194.986 343.112 195.682 343.388 196.306 343.58C196.954 343.772 197.77 343.868 198.754 343.868C199.762 343.868 200.542 343.7 201.094 343.364C201.67 343.028 201.958 342.56 201.958 341.96C201.958 341.552 201.838 341.228 201.598 340.988C201.382 340.748 200.974 340.532 200.374 340.34C199.798 340.124 198.91 339.884 197.71 339.62C195.574 339.188 194.038 338.576 193.102 337.784C192.19 336.992 191.734 335.9 191.734 334.508C191.734 333.452 192.046 332.504 192.67 331.664C193.294 330.8 194.146 330.14 195.226 329.684C196.33 329.204 197.578 328.964 198.97 328.964C199.978 328.964 200.95 329.096 201.886 329.36C202.822 329.6 203.662 329.96 204.406 330.44C205.174 330.92 205.558 331.556 205.558 332.348C205.558 332.828 205.426 333.236 205.162 333.572C204.898 333.884 204.574 334.04 204.19 334.04C203.926 334.04 203.662 333.992 203.398 333.896C203.158 333.776 202.846 333.608 202.462 333.392C201.766 333.032 201.166 332.768 200.662 332.6C200.158 332.408 199.534 332.312 198.79 332.312C197.902 332.312 197.194 332.492 196.666 332.852C196.162 333.212 195.91 333.704 195.91 334.328C195.91 334.928 196.174 335.384 196.702 335.696C197.23 336.008 198.25 336.32 199.762 336.632C201.37 336.968 202.63 337.352 203.542 337.784C204.454 338.216 205.102 338.756 205.486 339.404C205.894 340.052 206.098 340.88 206.098 341.888C206.098 343.52 205.414 344.828 204.046 345.812C202.702 346.796 200.902 347.288 198.646 347.288Z" fill="white"/>
<defs>
<filter id="filter0_dii" x="0" y="623.35" width="322" height="322" filterUnits="userSpaceOnUse" color-interpolation-filters="sRGB">
<feFlood flood-opacity="0" result="BackgroundImageFix"/>
<feColorMatrix in="SourceAlpha" type="matrix" values="0 0 0 0 0 0 0 0 0 0 0 0 0 0 0 0 0 0 127 0"/>
<feOffset dy="3.35"/>
<feGaussianBlur stdDeviation="33.5"/>
<feColorMatrix type="matrix" values="0 0 0 0 0.135917 0 0 0 0 0 0 0 0 0 0.970833 0 0 0 1 0"/>
<feBlend mode="normal" in2="BackgroundImageFix" result="effect1_dropShadow"/>
<feBlend mode="normal" in="SourceGraphic" in2="effect1_dropShadow" result="shape"/>
<feColorMatrix in="SourceAlpha" type="matrix" values="0 0 0 0 0 0 0 0 0 0 0 0 0 0 0 0 0 0 127 0" result="hardAlpha"/>
<feOffset dx="8.375" dy="13.4"/>
<feGaussianBlur stdDeviation="8.375"/>
<feComposite in2="hardAlpha" operator="arithmetic" k2="-1" k3="1"/>
<feColorMatrix type="matrix" values="0 0 0 0 0.510417 0 0 0 0 0.0208333 0 0 0 0 1 0 0 0 0.95 0"/>
<feBlend mode="normal" in2="shape" result="effect2_innerShadow"/>
<feColorMatrix in="SourceAlpha" type="matrix" values="0 0 0 0 0 0 0 0 0 0 0 0 0 0 0 0 0 0 127 0" result="hardAlpha"/>
<feOffset dy="1.675"/>
<feGaussianBlur stdDeviation="4.1875"/>
<feComposite in2="hardAlpha" operator="arithmetic" k2="-1" k3="1"/>
<feColorMatrix type="matrix" values="0 0 0 0 1 0 0 0 0 1 0 0 0 0 1 0 0 0 0.58 0"/>
<feBlend mode="normal" in2="effect2_innerShadow" result="effect3_innerShadow"/>
</filter>
<filter id="filter1_dii" x="294" y="354.35" width="436" height="436" filterUnits="userSpaceOnUse" color-interpolation-filters="sRGB">
<feFlood flood-opacity="0" result="BackgroundImageFix"/>
<feColorMatrix in="SourceAlpha" type="matrix" values="0 0 0 0 0 0 0 0 0 0 0 0 0 0 0 0 0 0 127 0"/>
<feOffset dy="3.35"/>
<feGaussianBlur stdDeviation="33.5"/>
<feColorMatrix type="matrix" values="0 0 0 0 0.135917 0 0 0 0 0 0 0 0 0 0.970833 0 0 0 1 0"/>
<feBlend mode="normal" in2="BackgroundImageFix" result="effect1_dropShadow"/>
<feBlend mode="normal" in="SourceGraphic" in2="effect1_dropShadow" result="shape"/>
<feColorMatrix in="SourceAlpha" type="matrix" values="0 0 0 0 0 0 0 0 0 0 0 0 0 0 0 0 0 0 127 0" result="hardAlpha"/>
<feOffset dx="8.375" dy="13.4"/>
<feGaussianBlur stdDeviation="8.375"/>
<feComposite in2="hardAlpha" operator="arithmetic" k2="-1" k3="1"/>
<feColorMatrix type="matrix" values="0 0 0 0 0.510417 0 0 0 0 0.0208333 0 0 0 0 1 0 0 0 0.95 0"/>
<feBlend mode="normal" in2="shape" result="effect2_innerShadow"/>
<feColorMatrix in="SourceAlpha" type="matrix" values="0 0 0 0 0 0 0 0 0 0 0 0 0 0 0 0 0 0 127 0" result="hardAlpha"/>
<feOffset dy="1.675"/>
<feGaussianBlur stdDeviation="4.1875"/>
<feComposite in2="hardAlpha" operator="arithmetic" k2="-1" k3="1"/>
<feColorMatrix type="matrix" values="0 0 0 0 1 0 0 0 0 1 0 0 0 0 1 0 0 0 0.58 0"/>
<feBlend mode="normal" in2="effect2_innerShadow" result="effect3_innerShadow"/>
</filter>
<filter id="filter2_dii" x="403" y="0.35" width="318" height="318" filterUnits="userSpaceOnUse" color-interpolation-filters="sRGB">
<feFlood flood-opacity="0" result="BackgroundImageFix"/>
<feColorMatrix in="SourceAlpha" type="matrix" values="0 0 0 0 0 0 0 0 0 0 0 0 0 0 0 0 0 0 127 0"/>
<feOffset dy="3.35"/>
<feGaussianBlur stdDeviation="33.5"/>
<feColorMatrix type="matrix" values="0 0 0 0 0.135917 0 0 0 0 0 0 0 0 0 0.970833 0 0 0 1 0"/>
<feBlend mode="normal" in2="BackgroundImageFix" result="effect1_dropShadow"/>
<feBlend mode="normal" in="SourceGraphic" in2="effect1_dropShadow" result="shape"/>
<feColorMatrix in="SourceAlpha" type="matrix" values="0 0 0 0 0 0 0 0 0 0 0 0 0 0 0 0 0 0 127 0" result="hardAlpha"/>
<feOffset dx="8.375" dy="13.4"/>
<feGaussianBlur stdDeviation="8.375"/>
<feComposite in2="hardAlpha" operator="arithmetic" k2="-1" k3="1"/>
<feColorMatrix type="matrix" values="0 0 0 0 0.510417 0 0 0 0 0.0208333 0 0 0 0 1 0 0 0 0.95 0"/>
<feBlend mode="normal" in2="shape" result="effect2_innerShadow"/>
<feColorMatrix in="SourceAlpha" type="matrix" values="0 0 0 0 0 0 0 0 0 0 0 0 0 0 0 0 0 0 127 0" result="hardAlpha"/>
<feOffset dy="1.675"/>
<feGaussianBlur stdDeviation="4.1875"/>
<feComposite in2="hardAlpha" operator="arithmetic" k2="-1" k3="1"/>
<feColorMatrix type="matrix" values="0 0 0 0 1 0 0 0 0 1 0 0 0 0 1 0 0 0 0.58 0"/>
<feBlend mode="normal" in2="effect2_innerShadow" result="effect3_innerShadow"/>
</filter>
<filter id="filter3_dii" x="680" y="724.35" width="282" height="282" filterUnits="userSpaceOnUse" color-interpolation-filters="sRGB">
<feFlood flood-opacity="0" result="BackgroundImageFix"/>
<feColorMatrix in="SourceAlpha" type="matrix" values="0 0 0 0 0 0 0 0 0 0 0 0 0 0 0 0 0 0 127 0"/>
<feOffset dy="3.35"/>
<feGaussianBlur stdDeviation="33.5"/>
<feColorMatrix type="matrix" values="0 0 0 0 0.135917 0 0 0 0 0 0 0 0 0 0.970833 0 0 0 1 0"/>
<feBlend mode="normal" in2="BackgroundImageFix" result="effect1_dropShadow"/>
<feBlend mode="normal" in="SourceGraphic" in2="effect1_dropShadow" result="shape"/>
<feColorMatrix in="SourceAlpha" type="matrix" values="0 0 0 0 0 0 0 0 0 0 0 0 0 0 0 0 0 0 127 0" result="hardAlpha"/>
<feOffset dx="8.375" dy="13.4"/>
<feGaussianBlur stdDeviation="8.375"/>
<feComposite in2="hardAlpha" operator="arithmetic" k2="-1" k3="1"/>
<feColorMatrix type="matrix" values="0 0 0 0 0.510417 0 0 0 0 0.0208333 0 0 0 0 1 0 0 0 0.95 0"/>
<feBlend mode="normal" in2="shape" result="effect2_innerShadow"/>
<feColorMatrix in="SourceAlpha" type="matrix" values="0 0 0 0 0 0 0 0 0 0 0 0 0 0 0 0 0 0 127 0" result="hardAlpha"/>
<feOffset dy="1.675"/>
<feGaussianBlur stdDeviation="4.1875"/>
<feComposite in2="hardAlpha" operator="arithmetic" k2="-1" k3="1"/>
<feColorMatrix type="matrix" values="0 0 0 0 1 0 0 0 0 1 0 0 0 0 1 0 0 0 0.58 0"/>
<feBlend mode="normal" in2="effect2_innerShadow" result="effect3_innerShadow"/>
</filter>
<filter id="filter4_dii" x="349" y="846.35" width="272" height="272" filterUnits="userSpaceOnUse" color-interpolation-filters="sRGB">
<feFlood flood-opacity="0" result="BackgroundImageFix"/>
<feColorMatrix in="SourceAlpha" type="matrix" values="0 0 0 0 0 0 0 0 0 0 0 0 0 0 0 0 0 0 127 0"/>
<feOffset dy="3.35"/>
<feGaussianBlur stdDeviation="33.5"/>
<feColorMatrix type="matrix" values="0 0 0 0 0.135917 0 0 0 0 0 0 0 0 0 0.970833 0 0 0 1 0"/>
<feBlend mode="normal" in2="BackgroundImageFix" result="effect1_dropShadow"/>
<feBlend mode="normal" in="SourceGraphic" in2="effect1_dropShadow" result="shape"/>
<feColorMatrix in="SourceAlpha" type="matrix" values="0 0 0 0 0 0 0 0 0 0 0 0 0 0 0 0 0 0 127 0" result="hardAlpha"/>
<feOffset dx="8.375" dy="13.4"/>
<feGaussianBlur stdDeviation="8.375"/>
<feComposite in2="hardAlpha" operator="arithmetic" k2="-1" k3="1"/>
<feColorMatrix type="matrix" values="0 0 0 0 0.510417 0 0 0 0 0.0208333 0 0 0 0 1 0 0 0 0.95 0"/>
<feBlend mode="normal" in2="shape" result="effect2_innerShadow"/>
<feColorMatrix in="SourceAlpha" type="matrix" values="0 0 0 0 0 0 0 0 0 0 0 0 0 0 0 0 0 0 127 0" result="hardAlpha"/>
<feOffset dy="1.675"/>
<feGaussianBlur stdDeviation="4.1875"/>
<feComposite in2="hardAlpha" operator="arithmetic" k2="-1" k3="1"/>
<feColorMatrix type="matrix" values="0 0 0 0 1 0 0 0 0 1 0 0 0 0 1 0 0 0 0.58 0"/>
<feBlend mode="normal" in2="effect2_innerShadow" result="effect3_innerShadow"/>
</filter>
<filter id="filter5_dii" x="17" y="201.35" width="287" height="287" filterUnits="userSpaceOnUse" color-interpolation-filters="sRGB">
<feFlood flood-opacity="0" result="BackgroundImageFix"/>
<feColorMatrix in="SourceAlpha" type="matrix" values="0 0 0 0 0 0 0 0 0 0 0 0 0 0 0 0 0 0 127 0"/>
<feOffset dy="3.35"/>
<feGaussianBlur stdDeviation="33.5"/>
<feColorMatrix type="matrix" values="0 0 0 0 0.135917 0 0 0 0 0 0 0 0 0 0.970833 0 0 0 1 0"/>
<feBlend mode="normal" in2="BackgroundImageFix" result="effect1_dropShadow"/>
<feBlend mode="normal" in="SourceGraphic" in2="effect1_dropShadow" result="shape"/>
<feColorMatrix in="SourceAlpha" type="matrix" values="0 0 0 0 0 0 0 0 0 0 0 0 0 0 0 0 0 0 127 0" result="hardAlpha"/>
<feOffset dx="8.375" dy="13.4"/>
<feGaussianBlur stdDeviation="8.375"/>
<feComposite in2="hardAlpha" operator="arithmetic" k2="-1" k3="1"/>
<feColorMatrix type="matrix" values="0 0 0 0 0.510417 0 0 0 0 0.0208333 0 0 0 0 1 0 0 0 0.95 0"/>
<feBlend mode="normal" in2="shape" result="effect2_innerShadow"/>
<feColorMatrix in="SourceAlpha" type="matrix" values="0 0 0 0 0 0 0 0 0 0 0 0 0 0 0 0 0 0 127 0" result="hardAlpha"/>
<feOffset dy="1.675"/>
<feGaussianBlur stdDeviation="4.1875"/>
<feComposite in2="hardAlpha" operator="arithmetic" k2="-1" k3="1"/>
<feColorMatrix type="matrix" values="0 0 0 0 1 0 0 0 0 1 0 0 0 0 1 0 0 0 0.58 0"/>
<feBlend mode="normal" in2="effect2_innerShadow" result="effect3_innerShadow"/>
</filter>
<filter id="filter6_dii" x="743" y="263.35" width="304" height="300" filterUnits="userSpaceOnUse" color-interpolation-filters="sRGB">
<feFlood flood-opacity="0" result="BackgroundImageFix"/>
<feColorMatrix in="SourceAlpha" type="matrix" values="0 0 0 0 0 0 0 0 0 0 0 0 0 0 0 0 0 0 127 0"/>
<feOffset dy="3.35"/>
<feGaussianBlur stdDeviation="33.5"/>
<feColorMatrix type="matrix" values="0 0 0 0 0.135917 0 0 0 0 0 0 0 0 0 0.970833 0 0 0 1 0"/>
<feBlend mode="normal" in2="BackgroundImageFix" result="effect1_dropShadow"/>
<feBlend mode="normal" in="SourceGraphic" in2="effect1_dropShadow" result="shape"/>
<feColorMatrix in="SourceAlpha" type="matrix" values="0 0 0 0 0 0 0 0 0 0 0 0 0 0 0 0 0 0 127 0" result="hardAlpha"/>
<feOffset dx="8.375" dy="13.4"/>
<feGaussianBlur stdDeviation="8.375"/>
<feComposite in2="hardAlpha" operator="arithmetic" k2="-1" k3="1"/>
<feColorMatrix type="matrix" values="0 0 0 0 0.510417 0 0 0 0 0.0208333 0 0 0 0 1 0 0 0 0.95 0"/>
<feBlend mode="normal" in2="shape" result="effect2_innerShadow"/>
<feColorMatrix in="SourceAlpha" type="matrix" values="0 0 0 0 0 0 0 0 0 0 0 0 0 0 0 0 0 0 127 0" result="hardAlpha"/>
<feOffset dy="1.675"/>
<feGaussianBlur stdDeviation="4.1875"/>
<feComposite in2="hardAlpha" operator="arithmetic" k2="-1" k3="1"/>
<feColorMatrix type="matrix" values="0 0 0 0 1 0 0 0 0 1 0 0 0 0 1 0 0 0 0.58 0"/>
<feBlend mode="normal" in2="effect2_innerShadow" result="effect3_innerShadow"/>
</filter>
<filter id="filter7_dii" x="242" y="248.35" width="155" height="155" filterUnits="userSpaceOnUse" color-interpolation-filters="sRGB">
<feFlood flood-opacity="0" result="BackgroundImageFix"/>
<feColorMatrix in="SourceAlpha" type="matrix" values="0 0 0 0 0 0 0 0 0 0 0 0 0 0 0 0 0 0 127 0"/>
<feOffset dy="3.35"/>
<feGaussianBlur stdDeviation="33.5"/>
<feColorMatrix type="matrix" values="0 0 0 0 0.135917 0 0 0 0 0 0 0 0 0 0.970833 0 0 0 1 0"/>
<feBlend mode="normal" in2="BackgroundImageFix" result="effect1_dropShadow"/>
<feBlend mode="normal" in="SourceGraphic" in2="effect1_dropShadow" result="shape"/>
<feColorMatrix in="SourceAlpha" type="matrix" values="0 0 0 0 0 0 0 0 0 0 0 0 0 0 0 0 0 0 127 0" result="hardAlpha"/>
<feOffset dx="8.375" dy="13.4"/>
<feGaussianBlur stdDeviation="8.375"/>
<feComposite in2="hardAlpha" operator="arithmetic" k2="-1" k3="1"/>
<feColorMatrix type="matrix" values="0 0 0 0 0.510417 0 0 0 0 0.0208333 0 0 0 0 1 0 0 0 0.95 0"/>
<feBlend mode="normal" in2="shape" result="effect2_innerShadow"/>
<feColorMatrix in="SourceAlpha" type="matrix" values="0 0 0 0 0 0 0 0 0 0 0 0 0 0 0 0 0 0 127 0" result="hardAlpha"/>
<feOffset dy="1.675"/>
<feGaussianBlur stdDeviation="4.1875"/>
<feComposite in2="hardAlpha" operator="arithmetic" k2="-1" k3="1"/>
<feColorMatrix type="matrix" values="0 0 0 0 1 0 0 0 0 1 0 0 0 0 1 0 0 0 0.58 0"/>
<feBlend mode="normal" in2="effect2_innerShadow" result="effect3_innerShadow"/>
</filter>
<filter id="filter8_dii" x="221" y="633.35" width="155" height="155" filterUnits="userSpaceOnUse" color-interpolation-filters="sRGB">
<feFlood flood-opacity="0" result="BackgroundImageFix"/>
<feColorMatrix in="SourceAlpha" type="matrix" values="0 0 0 0 0 0 0 0 0 0 0 0 0 0 0 0 0 0 127 0"/>
<feOffset dy="3.35"/>
<feGaussianBlur stdDeviation="33.5"/>
<feColorMatrix type="matrix" values="0 0 0 0 0.135917 0 0 0 0 0 0 0 0 0 0.970833 0 0 0 1 0"/>
<feBlend mode="normal" in2="BackgroundImageFix" result="effect1_dropShadow"/>
<feBlend mode="normal" in="SourceGraphic" in2="effect1_dropShadow" result="shape"/>
<feColorMatrix in="SourceAlpha" type="matrix" values="0 0 0 0 0 0 0 0 0 0 0 0 0 0 0 0 0 0 127 0" result="hardAlpha"/>
<feOffset dx="8.375" dy="13.4"/>
<feGaussianBlur stdDeviation="8.375"/>
<feComposite in2="hardAlpha" operator="arithmetic" k2="-1" k3="1"/>
<feColorMatrix type="matrix" values="0 0 0 0 0.510417 0 0 0 0 0.0208333 0 0 0 0 1 0 0 0 0.95 0"/>
<feBlend mode="normal" in2="shape" result="effect2_innerShadow"/>
<feColorMatrix in="SourceAlpha" type="matrix" values="0 0 0 0 0 0 0 0 0 0 0 0 0 0 0 0 0 0 127 0" result="hardAlpha"/>
<feOffset dy="1.675"/>
<feGaussianBlur stdDeviation="4.1875"/>
<feComposite in2="hardAlpha" operator="arithmetic" k2="-1" k3="1"/>
<feColorMatrix type="matrix" values="0 0 0 0 1 0 0 0 0 1 0 0 0 0 1 0 0 0 0.58 0"/>
<feBlend mode="normal" in2="effect2_innerShadow" result="effect3_innerShadow"/>
</filter>
<filter id="filter9_dii" x="680" y="345.35" width="155" height="155" filterUnits="userSpaceOnUse" color-interpolation-filters="sRGB">
<feFlood flood-opacity="0" result="BackgroundImageFix"/>
<feColorMatrix in="SourceAlpha" type="matrix" values="0 0 0 0 0 0 0 0 0 0 0 0 0 0 0 0 0 0 127 0"/>
<feOffset dy="3.35"/>
<feGaussianBlur stdDeviation="33.5"/>
<feColorMatrix type="matrix" values="0 0 0 0 0.135917 0 0 0 0 0 0 0 0 0 0.970833 0 0 0 1 0"/>
<feBlend mode="normal" in2="BackgroundImageFix" result="effect1_dropShadow"/>
<feBlend mode="normal" in="SourceGraphic" in2="effect1_dropShadow" result="shape"/>
<feColorMatrix in="SourceAlpha" type="matrix" values="0 0 0 0 0 0 0 0 0 0 0 0 0 0 0 0 0 0 127 0" result="hardAlpha"/>
<feOffset dx="8.375" dy="13.4"/>
<feGaussianBlur stdDeviation="8.375"/>
<feComposite in2="hardAlpha" operator="arithmetic" k2="-1" k3="1"/>
<feColorMatrix type="matrix" values="0 0 0 0 0.510417 0 0 0 0 0.0208333 0 0 0 0 1 0 0 0 0.95 0"/>
<feBlend mode="normal" in2="shape" result="effect2_innerShadow"/>
<feColorMatrix in="SourceAlpha" type="matrix" values="0 0 0 0 0 0 0 0 0 0 0 0 0 0 0 0 0 0 127 0" result="hardAlpha"/>
<feOffset dy="1.675"/>
<feGaussianBlur stdDeviation="4.1875"/>
<feComposite in2="hardAlpha" operator="arithmetic" k2="-1" k3="1"/>
<feColorMatrix type="matrix" values="0 0 0 0 1 0 0 0 0 1 0 0 0 0 1 0 0 0 0.58 0"/>
<feBlend mode="normal" in2="effect2_innerShadow" result="effect3_innerShadow"/>
</filter>
<filter id="filter10_dii" x="611" y="724.35" width="155" height="155" filterUnits="userSpaceOnUse" color-interpolation-filters="sRGB">
<feFlood flood-opacity="0" result="BackgroundImageFix"/>
<feColorMatrix in="SourceAlpha" type="matrix" values="0 0 0 0 0 0 0 0 0 0 0 0 0 0 0 0 0 0 127 0"/>
<feOffset dy="3.35"/>
<feGaussianBlur stdDeviation="33.5"/>
<feColorMatrix type="matrix" values="0 0 0 0 0.135917 0 0 0 0 0 0 0 0 0 0.970833 0 0 0 1 0"/>
<feBlend mode="normal" in2="BackgroundImageFix" result="effect1_dropShadow"/>
<feBlend mode="normal" in="SourceGraphic" in2="effect1_dropShadow" result="shape"/>
<feColorMatrix in="SourceAlpha" type="matrix" values="0 0 0 0 0 0 0 0 0 0 0 0 0 0 0 0 0 0 127 0" result="hardAlpha"/>
<feOffset dx="8.375" dy="13.4"/>
<feGaussianBlur stdDeviation="8.375"/>
<feComposite in2="hardAlpha" operator="arithmetic" k2="-1" k3="1"/>
<feColorMatrix type="matrix" values="0 0 0 0 0.510417 0 0 0 0 0.0208333 0 0 0 0 1 0 0 0 0.95 0"/>
<feBlend mode="normal" in2="shape" result="effect2_innerShadow"/>
<feColorMatrix in="SourceAlpha" type="matrix" values="0 0 0 0 0 0 0 0 0 0 0 0 0 0 0 0 0 0 127 0" result="hardAlpha"/>
<feOffset dy="1.675"/>
<feGaussianBlur stdDeviation="4.1875"/>
<feComposite in2="hardAlpha" operator="arithmetic" k2="-1" k3="1"/>
<feColorMatrix type="matrix" values="0 0 0 0 1 0 0 0 0 1 0 0 0 0 1 0 0 0 0.58 0"/>
<feBlend mode="normal" in2="effect2_innerShadow" result="effect3_innerShadow"/>
</filter>
<radialGradient id="paint0_radial" cx="0" cy="0" r="1" gradientUnits="userSpaceOnUse" gradientTransform="translate(199.352 745.656) rotate(110.973) scale(193.286)">
<stop stop-color="#3244E8"/>
<stop offset="1" stop-color="#000210" stop-opacity="0"/>
</radialGradient>
<radialGradient id="paint1_radial" cx="0" cy="0" r="1" gradientUnits="userSpaceOnUse" gradientTransform="translate(573.608 512.224) rotate(110.973) scale(310.491)">
<stop stop-color="#3244E8"/>
<stop offset="1" stop-color="#000210" stop-opacity="0"/>
</radialGradient>
<radialGradient id="paint2_radial" cx="0" cy="0" r="1" gradientUnits="userSpaceOnUse" gradientTransform="translate(599.536 121.408) rotate(110.973) scale(189.173)">
<stop stop-color="#3244E8"/>
<stop offset="1" stop-color="#000210" stop-opacity="0"/>
</radialGradient>
<radialGradient id="paint3_radial" cx="0" cy="0" r="1" gradientUnits="userSpaceOnUse" gradientTransform="translate(851.192 834.176) rotate(110.973) scale(152.161)">
<stop stop-color="#3244E8"/>
<stop offset="1" stop-color="#000210" stop-opacity="0"/>
</radialGradient>
<radialGradient id="paint4_radial" cx="0" cy="0" r="1" gradientUnits="userSpaceOnUse" gradientTransform="translate(513.152 953.056) rotate(110.973) scale(141.88)">
<stop stop-color="#3244E8"/>
<stop offset="1" stop-color="#000210" stop-opacity="0"/>
</radialGradient>
<radialGradient id="paint5_radial" cx="0" cy="0" r="1" gradientUnits="userSpaceOnUse" gradientTransform="translate(191.712 312.736) rotate(110.973) scale(157.302)">
<stop stop-color="#3244E8"/>
<stop offset="1" stop-color="#000210" stop-opacity="0"/>
</radialGradient>
<radialGradient id="paint6_radial" cx="0" cy="0" r="1" gradientUnits="userSpaceOnUse" gradientTransform="translate(929.68 378.792) rotate(111.433) scale(171.2 174.236)">
<stop stop-color="#3244E8"/>
<stop offset="1" stop-color="#000210" stop-opacity="0"/>
</radialGradient>
<radialGradient id="paint7_radial" cx="0" cy="0" r="1" gradientUnits="userSpaceOnUse" gradientTransform="translate(323.784 318.552) rotate(110.973) scale(21.5905)">
<stop stop-color="#3244E8"/>
<stop offset="1" stop-color="#000210" stop-opacity="0"/>
</radialGradient>
<radialGradient id="paint8_radial" cx="0" cy="0" r="1" gradientUnits="userSpaceOnUse" gradientTransform="translate(302.784 703.552) rotate(110.973) scale(21.5905)">
<stop stop-color="#3244E8"/>
<stop offset="1" stop-color="#000210" stop-opacity="0"/>
</radialGradient>
<radialGradient id="paint9_radial" cx="0" cy="0" r="1" gradientUnits="userSpaceOnUse" gradientTransform="translate(761.784 415.552) rotate(110.973) scale(21.5905)">
<stop stop-color="#3244E8"/>
<stop offset="1" stop-color="#000210" stop-opacity="0"/>
</radialGradient>
<radialGradient id="paint10_radial" cx="0" cy="0" r="1" gradientUnits="userSpaceOnUse" gradientTransform="translate(692.784 794.552) rotate(110.973) scale(21.5905)">
<stop stop-color="#3244E8"/>
<stop offset="1" stop-color="#000210" stop-opacity="0"/>
</radialGradient>
</defs>
</svg>
