<svg xmlns="http://www.w3.org/2000/svg" width="1920" height="1080" fill="none" viewBox="0 0 1920 1080"><g clip-path="url(#clip0)"><path fill="url(#paint0_linear)" d="M29 -189C92.6894 -161.619 286.327 -71.4859 411.136 -24.7116C535.946 22.0627 644.398 60.6579 777.859 91.6458C911.32 122.634 1087.44 121.534 1211.9 161.216C1336.36 200.899 1401.76 290.968 1524.61 329.742C1647.46 368.515 1878.27 383.171 1949 393.857V1001.99H29V-189Z"/><path fill="url(#paint1_linear)" d="M35 -70C98.6894 -42.6186 292.327 47.5141 417.136 94.2884C541.946 141.063 650.398 179.658 783.859 210.646C917.32 241.634 1093.44 240.534 1217.9 280.216C1342.36 319.899 1407.76 409.968 1530.61 448.742C1653.46 487.515 1884.27 502.171 1955 512.857V1120.99H35V-70Z"/><path fill="#000" d="M1920 0H0V1080H1920V0Z"/><path fill="url(#paint2_linear)" d="M0 -548.087C58.7965 -529.378 221.063 -479.487 352.779 -435.833C484.496 -392.178 652.523 -312.697 790.3 -286.16C928.077 -259.623 1054.31 -302.073 1179.44 -276.611C1304.57 -251.149 1417.67 -178.144 1541.09 -133.39C1664.52 -88.636 1856.85 -28.9709 1920 -8.0871V1080H0V-548.087Z"/><path fill="url(#paint3_linear)" d="M0 -410.061C48.693 -403.236 184.037 -398.598 292.158 -369.109C400.28 -339.619 533.938 -273.77 648.729 -233.124C763.52 -192.478 868.143 -149.283 980.903 -125.233C1093.66 -101.184 1230.38 -120.28 1325.29 -88.8281C1420.2 -57.3759 1451.22 24.6374 1550.34 63.4794C1649.46 102.321 1858.39 130.767 1920 144.224V1080H0V-410.061Z"/><path fill="url(#paint4_linear)" d="M0 -268.178C51.0911 -248.388 220.479 -182.061 306.546 -149.439C392.613 -116.816 424.029 -95.0812 516.401 -72.4408C608.773 -49.8004 768.236 -35.5667 860.78 -13.5962C953.324 8.37427 992.296 29.9348 1071.66 59.3821C1151.03 88.8294 1237.81 130.585 1336.99 163.087C1436.18 195.59 1569.62 231.514 1666.78 254.398C1763.95 277.283 1877.8 292.727 1920 300.393V1080H0V-268.178Z"/><path fill="url(#paint5_linear)" d="M0 -160.75C48.0682 -138.448 181.187 -67.7993 288.409 -26.936C395.632 13.9272 527.446 56.3917 643.336 84.4291C759.225 112.466 877.16 119.062 983.747 141.288C1090.33 163.514 1186.11 193.593 1282.86 217.786C1379.61 241.98 1458.06 252.395 1564.25 286.448C1670.44 320.502 1860.71 399.497 1920 422.107V1080H0V-160.75Z"/><path fill="url(#paint6_linear)" d="M0 -70.2023C52.7664 -58.5571 206.216 -28.6569 316.599 -0.331184C426.981 27.9946 552.107 58.8976 662.295 99.7522C772.482 140.607 879.591 205.6 977.724 244.797C1075.86 283.993 1144.26 299.252 1251.09 334.932C1357.92 370.612 1507.23 426.875 1618.71 458.876C1730.2 490.878 1869.79 515.596 1920 526.941V1080H0V-70.2023Z"/><path fill="url(#paint7_linear)" d="M0 149.582C53.1562 166.862 210.698 215.622 318.937 253.262C427.177 290.902 547.738 344.466 649.436 375.423C751.134 406.38 823.897 404.199 929.127 439.005C1034.36 473.812 1166.29 546.536 1280.81 584.261C1395.34 621.986 1509.77 635.899 1616.3 665.357C1722.83 694.815 1869.38 745.068 1920 761.01V1080H0V149.582Z"/><path fill="url(#paint8_linear)" d="M0 201.208C52.4009 225.874 210.716 308.987 314.405 349.204C418.094 389.42 513.995 412.237 622.134 442.507C730.274 472.777 856.31 496.573 963.241 530.824C1070.17 565.075 1150.81 619.438 1263.72 648.012C1376.64 676.587 1531.34 672.452 1640.72 702.271C1750.1 732.089 1873.45 806.147 1920 826.923V1080H0V201.208Z"/><g clip-path="url(#clip1)"><path fill="#94FFD2" d="M1920 0H0V1080H1920V0Z"/><path fill="url(#paint9_linear)" d="M17 -466C80.7239 -447.576 264.205 -393.955 399.344 -355.453C534.482 -316.951 697.05 -277.114 827.83 -234.987C958.61 -192.86 1065.61 -142.105 1184.02 -102.691C1302.44 -63.278 1412.83 -27.9556 1538.32 1.49298C1663.82 30.9416 1870.55 61.9155 1937 74V1121.57H17V-466Z"/><path fill="url(#paint10_linear)" d="M0 -283C55.7413 -269.384 223.154 -235.75 334.448 -201.305C445.742 -166.86 566.758 -101.316 667.766 -76.331C768.773 -51.346 834.544 -75.6881 940.492 -51.3952C1046.44 -27.1022 1187.06 36.4123 1303.46 69.4268C1419.86 102.441 1536.14 113.048 1638.89 146.692C1741.65 180.335 1873.15 250.52 1920 271.286V1188.78H0V-283Z"/><path fill="url(#paint11_linear)" d="M17 -132C67.7063 -115.671 218.258 -69.9475 321.238 -34.029C424.217 1.88951 520.084 56.8773 634.877 83.511C749.671 110.145 897.748 102.572 1010 125.773C1122.25 148.975 1202.03 189.806 1308.37 222.72C1414.71 255.634 1543.27 287.617 1648.05 323.259C1752.82 358.9 1888.84 417.686 1937 436.571V1278.68H17V-132Z"/><path fill="url(#paint12_linear)" d="M0 -14C50.3231 -7.00522 211.95 -8.84322 301.939 27.9687C391.927 64.7806 458.418 175.227 539.933 206.871C621.448 238.516 692.114 194.074 791.026 217.836C889.937 241.598 1026.75 308.513 1133.4 349.443C1240.05 390.374 1341 434.936 1430.91 463.418C1520.83 491.899 1585.87 498.219 1672.88 520.331C1759.9 542.444 1906.31 583.468 1953 596.095V1122H0V-14Z"/><path fill="url(#paint13_linear)" d="M0 197C48.0848 212.379 195.233 260.835 288.509 289.275C381.784 317.716 474.382 337.087 559.653 367.641C644.924 398.195 710.838 441.505 800.134 472.602C889.43 503.698 995.852 530.966 1095.43 554.22C1195.01 577.474 1307.81 581.789 1397.59 612.124C1487.37 642.459 1547.03 703.512 1634.1 736.23C1721.17 768.947 1872.35 796.395 1920 808.429V1188.74H0V197Z"/><path fill="url(#paint14_linear)" d="M-22 441C33.4418 463.372 217.278 550.015 310.651 575.233C404.023 600.451 454.901 572.791 538.237 592.306C621.573 611.821 718.254 662.138 810.665 692.325C903.076 722.513 1010.24 750.192 1092.7 773.431C1175.17 796.671 1218.09 807.401 1305.47 831.76C1392.84 856.12 1518.2 880.43 1616.95 919.589C1715.71 958.748 1851.16 1042.19 1898 1066.71V1251.47H-22V441Z"/></g></g><defs><linearGradient id="paint0_linear" x1="989" x2="567.781" y1="-189" y2="1169.1" gradientUnits="userSpaceOnUse"><stop stop-color="#DFF2C0"/><stop offset=".486" stop-color="#42D77B"/></linearGradient><linearGradient id="paint1_linear" x1="995" x2="573.781" y1="-70" y2="1288.1" gradientUnits="userSpaceOnUse"><stop stop-color="#DFF2C0"/><stop offset=".486" stop-color="#42D77B"/></linearGradient><linearGradient id="paint2_linear" x1="960" x2="228.624" y1="-548.087" y2="1176.93" gradientUnits="userSpaceOnUse"><stop stop-color="#87288A"/><stop offset=".1" stop-color="#140606"/></linearGradient><linearGradient id="paint3_linear" x1="960" x2="331.836" y1="-410.061" y2="1208.76" gradientUnits="userSpaceOnUse"><stop stop-color="#8A287A"/><stop offset=".229" stop-color="#140806"/></linearGradient><linearGradient id="paint4_linear" x1="960" x2="433.265" y1="-268.178" y2="1232.11" gradientUnits="userSpaceOnUse"><stop stop-color="#60288A"/><stop offset=".357" stop-color="#14060C"/></linearGradient><linearGradient id="paint5_linear" x1="960" x2="506.246" y1="-160.751" y2="1243.57" gradientUnits="userSpaceOnUse"><stop stop-color="#F2C0E9"/><stop offset=".486" stop-color="#D75B42"/></linearGradient><linearGradient id="paint6_linear" x1="960" x2="564.804" y1="-70.202" y2="1249.18" gradientUnits="userSpaceOnUse"><stop stop-color="#F2C0E9"/><stop offset=".614" stop-color="#D75B42"/></linearGradient><linearGradient id="paint7_linear" x1="960" x2="693.83" y1="149.582" y2="1248.11" gradientUnits="userSpaceOnUse"><stop stop-color="#F0C0F2"/><stop offset=".743" stop-color="#D74247"/></linearGradient><linearGradient id="paint8_linear" x1="960" x2="721.119" y1="201.208" y2="1245.03" gradientUnits="userSpaceOnUse"><stop stop-color="#F0C0F2"/><stop offset=".871" stop-color="#D74247"/></linearGradient><linearGradient id="paint9_linear" x1="977" x2="276.323" y1="-466" y2="1228.79" gradientUnits="userSpaceOnUse"><stop stop-color="#4CFCD2"/><stop offset="1" stop-color="#061014"/></linearGradient><linearGradient id="paint10_linear" x1="960" x2="345.194" y1="-283" y2="1321.08" gradientUnits="userSpaceOnUse"><stop stop-color="#40F8AA"/><stop offset="1" stop-color="#79FF87"/></linearGradient><linearGradient id="paint11_linear" x1="977" x2="406.236" y1="-132" y2="1421.67" gradientUnits="userSpaceOnUse"><stop stop-color="#35E49B"/><stop offset=".99" stop-color="#3FFF8C"/></linearGradient><linearGradient id="paint12_linear" x1="976.5" x2="595.723" y1="-14" y2="1295.26" gradientUnits="userSpaceOnUse"><stop stop-color="#C0F2C2"/><stop offset=".614" stop-color="#42D2D7"/></linearGradient><linearGradient id="paint13_linear" x1="960" x2="659.854" y1="197" y2="1359.16" gradientUnits="userSpaceOnUse"><stop stop-color="#CBF2C0"/><stop offset=".743" stop-color="#42D7B7"/></linearGradient><linearGradient id="paint14_linear" x1="938" x2="733.298" y1="441" y2="1410.88" gradientUnits="userSpaceOnUse"><stop stop-color="#DFF2C0"/><stop offset=".808" stop-color="#42D77B"/></linearGradient><clipPath id="clip0"><rect width="1920" height="1080" fill="#fff"/></clipPath><clipPath id="clip1"><rect width="1920" height="1080" fill="#fff"/></clipPath></defs></svg>