<svg width="1920" height="1080" viewBox="0 0 1920 1080" fill="none" xmlns="http://www.w3.org/2000/svg">
<g clip-path="url(#clip0)">
<path d="M1920 22H0V1102H1920V22Z" fill="black"/>
<path d="M0 -538.039C42.8372 -531.253 157.096 -535.389 257.023 -497.326C356.951 -459.262 481.023 -344.716 599.563 -309.657C718.102 -274.597 855.585 -315.071 968.26 -286.969C1080.94 -258.866 1162.44 -174.266 1275.61 -141.043C1388.79 -107.821 1539.92 -111.468 1647.32 -87.634C1754.72 -63.7998 1874.55 -12.9711 1920 1.96143V1102H0V-538.039Z" fill="url(#paint0_linear)"/>
<path d="M0 -405.675C47.5939 -396.723 194.044 -379.142 285.563 -351.963C377.083 -324.785 454.241 -268.411 549.118 -242.606C643.994 -216.801 768.054 -222.886 854.824 -197.134C941.593 -171.382 984.461 -119.301 1069.73 -88.0938C1155.01 -56.8865 1265.08 -36.8285 1366.46 -9.89017C1467.84 17.0482 1585.76 47.1194 1678.02 73.5362C1770.27 99.953 1879.67 136.098 1920 148.611V1102H0V-405.675Z" fill="url(#paint1_linear)"/>
<path d="M0 -244.793C42.7567 -229.352 165.994 -171.56 256.54 -152.148C347.086 -132.735 448.368 -157.428 543.277 -128.317C638.185 -99.2068 726.951 -7.01772 825.992 22.5155C925.033 52.0486 1050.23 20.6577 1137.52 48.8817C1224.82 77.1058 1272.81 160.393 1349.77 191.86C1426.72 223.326 1504.22 215.693 1599.26 237.68C1694.3 259.666 1866.54 309.429 1920 323.778V1163H0V-244.793Z" fill="url(#paint2_linear)"/>
<path d="M0 -57.6702C72.2153 -32.5474 302.381 59.6789 433.292 93.0665C564.203 126.454 658.527 116.918 785.467 142.655C912.407 168.392 1077.82 196.892 1194.93 247.488C1312.04 298.084 1367.29 399.946 1488.13 446.229C1608.98 492.512 1848.02 512.027 1920 525.187V1142H0V-57.6702Z" fill="url(#paint3_linear)"/>
<path d="M0 74.688C50.0988 96.9823 199.952 178.645 300.593 208.454C401.233 238.262 491.255 226.687 603.843 253.539C716.431 280.391 864.914 332.624 976.121 369.566C1087.33 406.508 1170.76 439.3 1271.09 475.19C1371.41 511.08 1469.91 552.132 1578.06 584.905C1686.22 617.679 1863.01 657.343 1920 671.831V1216H0V74.688Z" fill="url(#paint4_linear)"/>
<path d="M0 273.493C68.9398 292.019 287.891 339.895 413.639 384.65C539.387 429.405 630.098 500.133 754.489 542.023C878.88 583.913 1033.87 595.449 1159.98 635.99C1286.1 676.532 1384.52 743.785 1511.19 785.274C1637.86 826.762 1851.86 868.314 1920 884.922V1293H0V273.493Z" fill="url(#paint5_linear)"/>
<path d="M0 473.047C32.2754 484.179 114.795 507.538 193.652 539.838C272.509 572.138 380.032 637.171 473.143 666.845C566.254 696.52 669.12 699.314 752.32 717.886C835.521 736.458 902.266 751.797 972.346 778.276C1042.42 804.755 1100.26 842.958 1172.8 876.759C1245.33 910.561 1321.2 950.938 1407.53 981.086C1493.87 1011.23 1605.4 1038.04 1690.81 1057.65C1776.22 1077.26 1881.8 1091.91 1920 1098.76V1308H0V473.047Z" fill="url(#paint6_linear)"/>
</g>
<defs>
<linearGradient id="paint0_linear" x1="960" y1="-538.039" x2="219.51" y2="1195.75" gradientUnits="userSpaceOnUse">
<stop stop-color="#FFD9A3"/>
<stop offset="1" stop-color="#141206"/>
</linearGradient>
<linearGradient id="paint1_linear" x1="960" y1="-405.675" x2="318.893" y2="1227.2" gradientUnits="userSpaceOnUse">
<stop stop-color="#FFBA56"/>
<stop offset="1" stop-color="#131406"/>
</linearGradient>
<linearGradient id="paint2_linear" x1="960" y1="-244.793" x2="391.293" y2="1306.45" gradientUnits="userSpaceOnUse">
<stop stop-color="#FFCB80"/>
<stop offset="1" stop-color="#140F06"/>
</linearGradient>
<linearGradient id="paint3_linear" x1="960" y1="-57.6702" x2="533.168" y2="1308.57" gradientUnits="userSpaceOnUse">
<stop stop-color="#F2C0C6"/>
<stop offset="0.485714" stop-color="#D7C542"/>
</linearGradient>
<linearGradient id="paint4_linear" x1="960" y1="74.688" x2="570.396" y2="1385.53" gradientUnits="userSpaceOnUse">
<stop stop-color="#F2CFC0"/>
<stop offset="1" stop-color="#D7C542"/>
</linearGradient>
<linearGradient id="paint5_linear" x1="960" y1="273.493" x2="643.934" y2="1463.96" gradientUnits="userSpaceOnUse">
<stop stop-color="#FFCB80"/>
<stop offset="0.61595" stop-color="#D78A42"/>
</linearGradient>
<linearGradient id="paint6_linear" x1="960" y1="473.047" x2="743.309" y2="1469.62" gradientUnits="userSpaceOnUse">
<stop offset="0.275117" stop-color="#FFCB80"/>
<stop offset="0.707566" stop-color="#FFB64D"/>
</linearGradient>
<clipPath id="clip0">
<rect width="1920" height="1080" fill="white"/>
</clipPath>
</defs>
</svg>
