<svg xmlns="http://www.w3.org/2000/svg" width="1920" height="1080" fill="none" viewBox="0 0 1920 1080"><g clip-path="url(#clip0)"><path fill="#000" d="M1920 0H0V1080H1920V0Z"/><path fill="url(#paint0_linear)" d="M0 -531.595C44.6877 -516.804 169.591 -466.686 268.126 -442.853C366.662 -419.02 493.813 -419.408 591.212 -388.597C688.61 -357.785 775.335 -281.453 852.517 -257.984C929.699 -234.514 961.804 -269.556 1054.3 -247.779C1146.81 -226.003 1304.09 -153.985 1407.52 -127.323C1510.95 -100.661 1589.44 -110.428 1674.86 -87.8068C1760.27 -65.1855 1879.14 -7.63 1920 8.40533V1080H0V-531.595Z"/><path fill="url(#paint1_linear)" d="M0 -415.202C46.6222 -404.677 189.039 -383.566 279.733 -352.051C370.427 -320.536 445.55 -264.828 544.165 -226.111C642.779 -187.393 787.289 -140.711 871.421 -119.747C955.554 -98.7823 966.216 -121.599 1048.96 -100.326C1131.7 -79.0525 1263.61 -27.9155 1367.88 7.89203C1472.14 43.6996 1582.54 92.6544 1674.56 114.52C1766.58 136.385 1879.09 134.989 1920 139.083V1080H0V-415.202Z"/><path fill="url(#paint2_linear)" d="M0 -294.202C68.704 -282.941 277.187 -266.814 412.224 -226.637C547.261 -186.459 681.077 -106.34 810.222 -53.1378C939.367 0.0640564 1062.21 49.9168 1187.09 92.5748C1311.98 135.233 1437.39 172.511 1559.54 202.81C1681.7 233.109 1859.92 262.443 1920 274.37V1080H0V-294.202Z"/><path fill="url(#paint3_linear)" d="M0 -151.298C46.04 -137.906 182.131 -98.3305 276.24 -70.9461C370.348 -43.5616 471.853 -14.2425 564.652 13.0087C657.45 40.26 742.846 68.9571 833.029 92.5615C923.212 116.166 1019.19 121.255 1105.75 154.635C1192.31 188.016 1264.06 262.33 1352.37 292.845C1440.67 323.36 1541 314.605 1635.6 337.724C1730.21 360.843 1872.6 415.92 1920 431.559V1080H0V-151.298Z"/><path fill="url(#paint4_linear)" d="M0 -60.3448C71.2914 -45.646 302.247 -9.83662 427.749 27.8484C553.25 65.5334 639.439 113.969 753.012 165.765C866.584 217.562 985.481 300.533 1109.18 338.629C1232.89 376.725 1360.09 361.314 1495.22 394.342C1630.36 427.37 1849.2 513.055 1920 536.798V1080H0V-60.3448Z"/><path fill="url(#paint5_linear)" d="M0 148.191C40.9459 163.971 163.375 209.733 245.676 242.87C327.977 276.007 388.439 314.934 493.806 347.015C599.173 379.097 783.549 415.266 877.88 435.359C972.211 455.453 970.883 440.245 1059.79 467.577C1148.7 494.909 1319.99 570.722 1411.34 599.349C1502.68 627.976 1523.07 612.627 1607.85 639.339C1692.62 666.051 1867.97 739.573 1920 759.62V1080H0V148.191Z"/><path fill="url(#paint6_linear)" d="M0 188.784C58.0121 202.363 250.956 242.412 348.073 270.258C445.19 298.103 488.673 312.989 582.701 355.856C676.729 398.723 802.679 494.524 912.242 527.461C1021.8 560.399 1135.37 525.352 1240.08 553.482C1344.78 581.613 1427.15 652.741 1540.47 696.244C1653.79 739.746 1856.75 794.789 1920 814.498V1080H0V188.784Z"/></g><defs><linearGradient id="paint0_linear" x1="960" x2="241.159" y1="-531.595" y2="1181.21" gradientUnits="userSpaceOnUse"><stop stop-color="#D58FFF"/><stop offset="1" stop-color="#140614"/></linearGradient><linearGradient id="paint1_linear" x1="960" x2="328.066" y1="-415.202" y2="1207.74" gradientUnits="userSpaceOnUse"><stop stop-color="#9942D7"/><stop offset="1" stop-color="#B44FB6"/></linearGradient><linearGradient id="paint2_linear" x1="960" x2="415.065" y1="-294.202" y2="1228.54" gradientUnits="userSpaceOnUse"><stop stop-color="#9942D7"/><stop offset=".755" stop-color="#C0D5F2"/></linearGradient><linearGradient id="paint3_linear" x1="960" x2="512.491" y1="-151.298" y2="1244.33" gradientUnits="userSpaceOnUse"><stop stop-color="#CAC0F2"/><stop offset=".486" stop-color="#D742B9"/></linearGradient><linearGradient id="paint4_linear" x1="960" x2="571.002" y1="-60.345" y2="1249.57" gradientUnits="userSpaceOnUse"><stop stop-color="#C0C0F2"/><stop offset=".614" stop-color="#D742D7"/></linearGradient><linearGradient id="paint5_linear" x1="960" x2="693.078" y1="148.191" y2="1248.18" gradientUnits="userSpaceOnUse"><stop stop-color="#C0C0F2"/><stop offset=".743" stop-color="#D742D7"/></linearGradient><linearGradient id="paint6_linear" x1="960" x2="714.665" y1="188.784" y2="1245.86" gradientUnits="userSpaceOnUse"><stop stop-color="#C0CAF2"/><stop offset=".871" stop-color="#B942D7"/></linearGradient><clipPath id="clip0"><rect width="1920" height="1080" fill="#fff"/></clipPath></defs></svg>