<svg width="1920" height="1080" viewBox="0 0 1920 1080" fill="none" xmlns="http://www.w3.org/2000/svg">
<g clip-path="url(#clip0)">
<path d="M1920 0H0V1080H1920V0Z" fill="#E29CA8"/>
<path d="M0 -506.618C47.1424 -495.435 191.866 -460.115 282.855 -439.518C373.843 -418.92 464.667 -404.197 545.931 -383.032C627.195 -361.868 668.513 -342.391 770.44 -312.53C872.367 -282.669 1063.49 -235.763 1157.49 -203.866C1251.49 -171.969 1259.72 -138.094 1334.44 -121.148C1409.17 -104.203 1508.27 -127.949 1605.87 -102.194C1703.46 -76.4387 1867.64 10.7861 1920 33.3821V1080H0V-506.618Z" fill="url(#paint0_linear)"/>
<path d="M0 -423.452C68.595 -404.655 284.932 -342.102 411.57 -310.673C538.208 -279.245 628.508 -276.639 759.827 -234.878C891.145 -193.118 1065 -104.333 1199.48 -60.1109C1333.96 -15.8891 1446.63 -1.3714 1566.71 30.4528C1686.8 62.2769 1861.12 114.104 1920 130.834V1080H0V-423.452Z" fill="url(#paint1_linear)"/>
<path d="M0 -237.751C56.1959 -215.058 216.755 -139.446 337.175 -101.593C457.596 -63.7389 580.612 -53.6791 722.525 -10.629C864.438 32.4211 1050.63 126.024 1188.65 156.708C1326.67 187.391 1428.76 144.453 1550.65 173.472C1672.54 202.491 1858.44 304.596 1920 330.82V1080H0V-237.751Z" fill="url(#paint2_linear)"/>
<path d="M0 -98C36.987 -82.9442 128.815 -32.4409 221.922 -7.66531C315.029 17.1103 462.054 25.8283 558.644 50.6538C655.235 75.4793 708.305 107.379 801.465 141.288C894.626 175.197 1027.68 222.388 1117.61 254.107C1207.54 285.827 1251.24 305.126 1341.03 331.604C1430.82 358.083 1559.86 387.436 1656.35 412.979C1752.85 438.521 1876.06 472.877 1920 484.857V1177.99H0V-98Z" fill="url(#paint3_linear)"/>
<path d="M0 85C34.0883 90.0542 124.965 83.5464 204.53 115.325C284.094 147.104 395.408 248.113 477.387 275.673C559.367 303.233 620.198 258.965 696.408 280.684C772.618 302.404 854.385 371.678 934.649 405.99C1014.91 440.301 1091.35 473.327 1177.99 486.556C1264.63 499.784 1378.09 464.652 1454.5 485.361C1530.91 506.07 1558.87 578.012 1636.45 610.809C1714.03 643.606 1872.74 670.254 1920 682.143V1170.64H0V85Z" fill="url(#paint4_linear)"/>
<path d="M0 244C45.6093 263.247 180.721 327.162 273.656 359.48C366.59 391.798 472.087 409 557.607 437.907C643.127 466.815 702.274 502.087 786.775 532.925C871.275 563.763 967.429 602.22 1064.61 622.935C1161.79 643.649 1274.1 639.453 1369.87 657.211C1465.63 674.968 1547.52 696.442 1639.21 729.479C1730.9 762.515 1873.2 834.437 1920 855.429V1211.61H0V244Z" fill="url(#paint5_linear)"/>
<path d="M0 442C36.0971 456.794 133.988 497.112 216.582 530.762C299.177 564.412 420.716 610.985 495.568 643.9C570.42 676.816 584.62 707.07 665.694 728.256C746.769 749.442 886.757 762.053 982.013 771.017C1077.27 779.981 1165.73 757.587 1237.23 782.042C1308.73 806.497 1335.24 891.473 1411.01 917.746C1486.79 944.019 1607.03 914.685 1691.86 939.68C1776.69 964.674 1881.98 1046.38 1920 1067.71V1315.68H0V442Z" fill="url(#paint6_linear)"/>
</g>
<defs>
<linearGradient id="paint0_linear" x1="960" y1="-506.618" x2="260.044" y2="1187.45" gradientUnits="userSpaceOnUse">
<stop stop-color="#8A2849"/>
<stop offset="1" stop-color="#140F06"/>
</linearGradient>
<linearGradient id="paint1_linear" x1="960" y1="-423.452" x2="322.003" y2="1206.07" gradientUnits="userSpaceOnUse">
<stop stop-color="#E66A7F"/>
<stop offset="1" stop-color="#140614"/>
</linearGradient>
<linearGradient id="paint2_linear" x1="960" y1="-237.751" x2="454.296" y2="1235.9" gradientUnits="userSpaceOnUse">
<stop stop-color="#F584AA"/>
<stop offset="1" stop-color="#9A1985"/>
</linearGradient>
<linearGradient id="paint3_linear" x1="960" y1="-98" x2="482.703" y2="1338.39" gradientUnits="userSpaceOnUse">
<stop stop-color="#FF53BA" stop-opacity="0.69"/>
<stop offset="0.4375" stop-color="#D78742"/>
</linearGradient>
<linearGradient id="paint4_linear" x1="960" y1="85" x2="604.734" y2="1341.61" gradientUnits="userSpaceOnUse">
<stop stop-color="#F2C0E4"/>
<stop offset="0.614286" stop-color="#D76942"/>
</linearGradient>
<linearGradient id="paint5_linear" x1="960" y1="244" x2="673.423" y2="1381.3" gradientUnits="userSpaceOnUse">
<stop stop-color="#FF5370"/>
<stop offset="1" stop-color="#D7A542"/>
</linearGradient>
<linearGradient id="paint6_linear" x1="960" y1="442" x2="723.754" y2="1480.35" gradientUnits="userSpaceOnUse">
<stop stop-color="#FF869A"/>
<stop offset="0.871429" stop-color="#FF5370"/>
</linearGradient>
<clipPath id="clip0">
<rect width="1920" height="1080" fill="white"/>
</clipPath>
</defs>
</svg>
