<svg xmlns="http://www.w3.org/2000/svg" width="158" height="29" fill="none" xmlns:v="https://vecta.io/nano"><g fill-rule="evenodd"><path d="M24.09 2.134L11.445 20.351.445 4.822s-1.002-1.436 0-3.065c0 0 .332-.722 1.195-1.244.418-.252.969-.457 1.666-.51 0 0 .909-.073 2.337.523 0 0 6.87 2.78 18.447 1.609z" fill="#fd0"/><path d="M34.598.03s.478.007 1.062.192c.651.205 1.381.622 1.799 1.529 0 0 .81 1.483-.219 3.065L21.827 27.355s-.923 1.483-2.668 1.642c0 0-1.693.185-2.835-1.86l-4.972-6.917L24.084 2.135s5.503-.755 9.187-1.867c0 0 .883-.271 1.328-.238z" fill="#73cbf2"/><path d="M19.046 28.996H7.462c-.412-.02-.737-.232-.737-.232-.75-.741-.246-1.536-.246-1.536l4.866-7.003 5.888 7.917c.007 0 .558.827 1.812.854z" fill="#f27264"/></g><path d="M54.022 19.782L48.246 7.298h-2.841l7.256 15.47-.385.854c-.823 1.84-1.912 2.727-3.326 2.727-.724 0-1.573-.172-2.171-.444l-.943-.43v2.727l.451.152c.903.298 1.932.483 2.741.483 3.837 0 5.337-3.489 5.974-4.978L62.04 7.304h-2.788l-5.231 12.478zM69.993 7c-4.507 0-7.906 3.402-7.906 7.917 0 4.495 3.372 7.884 7.846 7.884 3.007 0 5.749-1.562 6.997-3.985l.312-.602-2.23-1.079-.299.563c-.889 1.675-2.702 2.707-4.72 2.707-2.615 0-4.706-1.741-5.204-4.236h12.652l.093-.549c.04-.238.066-.642.066-.973C77.607 10.217 74.407 7 69.993 7zm-5.251 6.811a5.23 5.23 0 0 1 5.224-4.415c2.615 0 4.64 1.82 5.025 4.415H64.742zM82.732.347h-2.549v22.155h2.549V.347zm6.352 0h-2.549v22.155h2.549V.347zm10.482 6.626c-4.507 0-7.906 3.416-7.906 7.943 0 4.495 3.399 7.884 7.906 7.884 4.527 0 7.939-3.389 7.939-7.884 0-4.528-3.412-7.943-7.939-7.943zm5.357 7.943c0 3.098-2.291 5.428-5.331 5.428-3.053 0-5.357-2.337-5.357-5.428 0-3.111 2.303-5.461 5.357-5.461 3.04 0 5.331 2.35 5.331 5.461zm23.81-7.618l-4.188 10.975-3.824-10.975h-2.104l-3.824 10.982-4.222-10.982h-2.801l6.041 15.205h2.058l3.81-10.962 3.764 10.962h2.058l6.04-15.205h-2.808zm3.864 12.127c-.976 0-1.766.774-1.766 1.734 0 .986.757 1.734 1.766 1.734.955 0 1.706-.761 1.706-1.734 0-.953-.77-1.734-1.706-1.734zm15.991-10.228C147.22 7.794 145.342 7 143.264 7c-4.354 0-7.64 3.402-7.64 7.917 0 4.495 3.272 7.884 7.607 7.884 2.084 0 3.976-.808 5.357-2.231v1.933h2.549V7.297h-2.549v1.9zm-.027 5.627c0 3.144-2.237 5.521-5.211 5.521-2.914 0-5.118-2.337-5.118-5.428 0-3.111 2.211-5.461 5.145-5.461 2.961 0 5.184 2.31 5.184 5.368zm8.935-7.526h-2.582v15.205h2.582V7.298zm.505-3.111c0-.986-.804-1.761-1.826-1.761-1.009 0-1.799.774-1.799 1.761a1.79 1.79 0 0 0 1.799 1.82c1.036 0 1.826-.781 1.826-1.82z" fill="#231f20"/></svg>