<svg xmlns="http://www.w3.org/2000/svg" width="92" height="24" fill="none" xmlns:v="https://vecta.io/nano"><g clip-path="url(#A)"><g fill="#000"><path d="M91.918 4.898h-1.87c-.045 0-.082.037-.082.082v1.912c0 .045.037.082.082.082h1.87c.045 0 .082-.037.082-.082V4.98c0-.045-.037-.082-.082-.082zM40.252 8.063h-1.743c-.042 0-.073.025-.099.082l-2.132 6.716c-.042.091-.132.091-.175 0l-2.132-6.716c-.025-.059-.059-.082-.099-.082h-1.777c-.067 0-.09.025-.067.082l2.776 8.26c.132.433.282.837.282 1.18 0 .498-.248.829-.974.829H32.13c-.059 0-.082.025-.082.082v1.446c0 .059.025.091.082.091h2.337c1.577 0 2.115-.69 2.703-2.433l3.165-9.454c.008-.059-.017-.082-.082-.082h-.003zm4-.176c-2.554 0-4.123 1.793-4.123 4.475s1.602 4.467 4.123 4.467c.957 0 1.785-.232 2.486-.69a3.11 3.11 0 0 0 1.355-1.943v-.017c0-.042-.025-.065-.082-.065h-1.743c-.059 0-.09.026-.116.082-.321.631-.932.987-1.901.987-1.337 0-2.213-.97-2.213-2.059 0-.059.025-.082.082-.082h6.113c.034 0 .059-.026.082-.082a2.27 2.27 0 0 0 .065-.597c0-2.648-1.577-4.475-4.131-4.475h.003zm2.081 3.677H42.12c-.059-.008-.082-.034-.082-.091 0-.713.701-1.918 2.213-1.918s2.166 1.103 2.166 1.918c0 .059-.025.091-.082.091h-.003zm4.87-6.873h-1.636c-.059 0-.09.025-.09.082v11.802c.008.059.034.082.09.082h1.636c.059 0 .082-.025.082-.082V4.776c0-.059-.025-.082-.082-.082v-.003zm3.514 0h-1.636c-.059 0-.09.025-.09.082v11.802c.009.059.034.082.09.082h1.636a.07.07 0 0 0 .082-.082V4.776c0-.059-.025-.082-.082-.082v-.003zm5.389 3.196c-2.644 0-4.19 1.793-4.19 4.475s1.538 4.467 4.19 4.467 4.213-1.81 4.213-4.467-1.571-4.475-4.213-4.475zm1.777 6.523c-.406.515-1 .772-1.777.772s-1.338-.257-1.743-.772c-.414-.515-.62-1.197-.62-2.051s.206-1.536.62-2.042c.405-.506.991-.764 1.743-.764s1.38.257 1.785.764.603 1.188.603 2.042-.206 1.536-.611 2.051zm15.133-6.347h-1.645c-.065 0-.107.034-.115.099l-1.405 6.699c-.042.107-.141.065-.166 0l-1.628-6.699c-.025-.065-.065-.099-.132-.099h-2.323c-.065 0-.107.034-.132.099l-1.628 6.699c-.042.091-.141.091-.166 0l-1.405-6.699c-.025-.065-.068-.099-.107-.099h-1.67c-.082 0-.115.034-.09.099l1.999 8.416c.025.059.059.082.099.082h2.503c.051 0 .082-.026.107-.082l1.554-6.682a.09.09 0 0 1 .175 0l1.571 6.682c.025.059.051.082.082.082h2.52c.051 0 .082-.026.107-.082l1.991-8.416c.008-.065-.025-.099-.099-.099h.003zm2.414 6.101h-2.29c-.045 0-.082.037-.082.082v2.334c0 .045.037.082.082.082h2.289c.045 0 .082-.037.082-.082v-2.334c0-.045-.037-.082-.082-.082zm9.827.936h-.372c-.363 0-.586-.241-.586-.566v-3.485c0-1.064-.338-1.859-1.017-2.382s-1.602-.781-2.776-.781c-1.966 0-3.726.996-3.726 2.996 0 .059.025.082.082.082h1.645c.059 0 .082-.025.082-.082a1.27 1.27 0 0 1 .453-.939c.287-.257.777-.39 1.461-.39 1.825 0 1.974.888 1.974 1.412 0 .198-.175.472-.538.472h-1.743c-2.478 0-3.709 1.18-3.709 2.673 0 .789.282 1.445.834 1.952s1.397.764 2.537.764c.718 0 1.321-.108 1.802-.323.479-.206.825-.433 1.042-.656a.08.08 0 0 1 .149.017c.299.523.777.798 1.726.798h.679c.059 0 .082-.025.082-.082v-1.395c0-.059-.025-.082-.082-.082V15.1zm-2.777-1.975c0 .953-.718 2.059-2.619 2.059-1.188 0-1.554-.597-1.554-1.072 0-.523.273-1.197 1.943-1.197h2.149c.059.008.082.034.082.091v.116.003zm5.275-5.062h-1.636c-.059 0-.09.025-.09.082v8.433c.008.059.034.082.09.082h1.636c.059 0 .082-.026.082-.082V8.145c0-.059-.025-.082-.082-.082z"/></g><path d="M26.039 0h-8.045c-.318 0-.608.181-.752.467l-5.35 10.702V.846c0-.467-.377-.846-.842-.846H.842C.377 0 0 .379 0 .846v7.293c0 .467.377.846.842.846h8.397c.127.003.245.059.324.158l2.036 2.475c.025.031.031.076.014.116L6.091 22.778c-.282.563.127 1.225.752 1.225h8.045c.318 0 .608-.181.752-.467L26.791 1.225C27.073.662 26.664 0 26.039 0z" fill="#f2cb67"/></g><defs><clipPath id="A"><path fill="#fff" d="M0 0h92v24H0z"/></clipPath></defs></svg>